%FSLAX34Y34*%
%MOMM*%
%LNCOPPER_BOTTOM*%
G71*
G01*
%ADD10C,1.520*%
%ADD11C,1.600*%
%ADD12C,2.000*%
%ADD13C,1.900*%
%ADD14C,0.800*%
%ADD15C,0.300*%
%ADD16C,1.000*%
%ADD17C,0.400*%
%ADD18C,0.600*%
%ADD19C,1.600*%
%ADD20C,2.000*%
%ADD21C,1.600*%
%ADD22C,2.000*%
%ADD23C,1.100*%
%LPD*%
G36*
X477500Y553700D02*
X477500Y538500D01*
X462300Y538500D01*
X462300Y553700D01*
X477500Y553700D01*
G37*
X469900Y520700D02*
G54D10*
D03*
X469900Y495300D02*
G54D10*
D03*
X469900Y469900D02*
G54D10*
D03*
X88900Y673100D02*
G54D11*
D03*
X88900Y647700D02*
G54D11*
D03*
X88900Y622300D02*
G54D11*
D03*
X88900Y596900D02*
G54D11*
D03*
X76200Y571500D02*
G54D12*
D03*
X76200Y546100D02*
G54D12*
D03*
X76200Y520700D02*
G54D12*
D03*
X76200Y495300D02*
G54D12*
D03*
X76200Y469900D02*
G54D12*
D03*
X76200Y444500D02*
G54D12*
D03*
X76200Y419100D02*
G54D12*
D03*
X76200Y393700D02*
G54D12*
D03*
X76200Y368300D02*
G54D12*
D03*
X76200Y342900D02*
G54D12*
D03*
X76200Y317500D02*
G54D12*
D03*
X584200Y616700D02*
G54D13*
D03*
X584200Y591300D02*
G54D13*
D03*
X38100Y177800D02*
G54D13*
D03*
X12700Y177800D02*
G54D13*
D03*
X38100Y254000D02*
G54D13*
D03*
X12700Y254000D02*
G54D13*
D03*
G36*
X45700Y655300D02*
X45700Y640100D01*
X30500Y640100D01*
X30500Y655300D01*
X45700Y655300D01*
G37*
X38100Y622300D02*
G54D10*
D03*
X38100Y596900D02*
G54D10*
D03*
X38100Y571500D02*
G54D10*
D03*
X266700Y584200D02*
G54D11*
D03*
X266700Y558800D02*
G54D11*
D03*
G54D14*
X76200Y317500D02*
X139700Y317500D01*
X190500Y368300D01*
X190500Y393700D01*
X292100Y393700D01*
G54D15*
X266700Y584200D02*
X279400Y571500D01*
X279400Y533400D01*
X355600Y533400D01*
G54D15*
X355600Y533400D02*
X355600Y520700D01*
X368300Y508000D01*
X431800Y508000D01*
X444500Y495300D01*
X469900Y495300D01*
X406400Y571500D02*
G54D16*
D03*
G54D17*
X355600Y533400D02*
X355600Y558800D01*
X368300Y571500D01*
X406400Y571500D01*
G54D18*
X223000Y197000D02*
X221000Y162500D01*
X222100Y127000D01*
X304800Y127900D01*
X304800Y241300D01*
X342900Y279400D01*
X342900Y304800D01*
X355600Y317500D01*
X355600Y457200D01*
X368300Y469900D01*
X469900Y469900D01*
X396900Y344600D02*
G54D16*
D03*
X431800Y165100D02*
G54D16*
D03*
X392200Y285700D02*
G54D16*
D03*
X414200Y247700D02*
G54D16*
D03*
G54D18*
X414200Y247700D02*
X414200Y220800D01*
X431800Y203200D01*
X431800Y165100D01*
G54D18*
X396900Y344600D02*
X396900Y295300D01*
X393700Y292100D01*
X139700Y673100D02*
G54D11*
D03*
X139700Y647700D02*
G54D11*
D03*
X139700Y622300D02*
G54D11*
D03*
X139700Y596900D02*
G54D11*
D03*
X292100Y673100D02*
G54D11*
D03*
X292100Y647700D02*
G54D11*
D03*
X292100Y622300D02*
G54D11*
D03*
X292100Y596900D02*
G54D11*
D03*
X139700Y571500D02*
G54D11*
D03*
X292100Y571500D02*
G54D11*
D03*
X139700Y546100D02*
G54D11*
D03*
X139700Y520700D02*
G54D11*
D03*
X292100Y546100D02*
G54D11*
D03*
X292100Y520700D02*
G54D11*
D03*
X139700Y495300D02*
G54D11*
D03*
X292100Y495300D02*
G54D11*
D03*
X139700Y469900D02*
G54D11*
D03*
X292100Y469900D02*
G54D11*
D03*
X139700Y444500D02*
G54D11*
D03*
X292100Y444500D02*
G54D11*
D03*
X292100Y419100D02*
G54D11*
D03*
X292100Y393700D02*
G54D11*
D03*
X139700Y419100D02*
G54D11*
D03*
X139700Y393700D02*
G54D11*
D03*
G36*
X45700Y541000D02*
X45700Y525800D01*
X30500Y525800D01*
X30500Y541000D01*
X45700Y541000D01*
G37*
X38100Y508000D02*
G54D10*
D03*
X38100Y482600D02*
G54D10*
D03*
X38100Y457200D02*
G54D10*
D03*
X38100Y431800D02*
G54D10*
D03*
G36*
X30500Y284500D02*
X30500Y299700D01*
X45700Y299700D01*
X45700Y284500D01*
X30500Y284500D01*
G37*
X38100Y317500D02*
G54D10*
D03*
X38100Y342900D02*
G54D10*
D03*
X38100Y368300D02*
G54D10*
D03*
X38100Y393700D02*
G54D10*
D03*
G36*
X548250Y335600D02*
X542400Y341450D01*
X542400Y369750D01*
X548250Y375600D01*
X556550Y375600D01*
X562400Y369750D01*
X562400Y341450D01*
X556550Y335600D01*
X548250Y335600D01*
G37*
G36*
X497450Y361000D02*
X491600Y366850D01*
X491600Y395150D01*
X497450Y401000D01*
X505750Y401000D01*
X511600Y395150D01*
X511600Y366850D01*
X505750Y361000D01*
X497450Y361000D01*
G37*
G36*
X497450Y310200D02*
X491600Y316050D01*
X491600Y344350D01*
X497450Y350200D01*
X505750Y350200D01*
X511600Y344350D01*
X511600Y316050D01*
X505750Y310200D01*
X497450Y310200D01*
G37*
G36*
X497450Y386400D02*
X491600Y392250D01*
X491600Y420550D01*
X497450Y426400D01*
X505750Y426400D01*
X511600Y420550D01*
X511600Y392250D01*
X505750Y386400D01*
X497450Y386400D01*
G37*
G36*
X497450Y284800D02*
X491600Y290650D01*
X491600Y318950D01*
X497450Y324800D01*
X505750Y324800D01*
X511600Y318950D01*
X511600Y290650D01*
X505750Y284800D01*
X497450Y284800D01*
G37*
X546100Y241300D02*
G54D19*
D03*
G36*
X536100Y245450D02*
X541950Y251300D01*
X550250Y251300D01*
X556100Y245450D01*
X556100Y237150D01*
X550250Y231300D01*
X541950Y231300D01*
X536100Y237150D01*
X536100Y245450D01*
G37*
G36*
X536100Y175100D02*
X556100Y175100D01*
X556100Y155100D01*
X536100Y155100D01*
X536100Y175100D01*
G37*
G36*
X55500Y155720D02*
X60180Y160400D01*
X66820Y160400D01*
X71500Y155720D01*
X71500Y149080D01*
X66820Y144400D01*
X60180Y144400D01*
X55500Y149080D01*
X55500Y155720D01*
G37*
G36*
X95300Y208075D02*
X98225Y211000D01*
X102375Y211000D01*
X105300Y208075D01*
X105300Y203925D01*
X102375Y201000D01*
X98225Y201000D01*
X95300Y203925D01*
X95300Y208075D01*
G37*
G36*
X45800Y205275D02*
X48725Y208200D01*
X52875Y208200D01*
X55800Y205275D01*
X55800Y201125D01*
X52875Y198200D01*
X48725Y198200D01*
X45800Y201125D01*
X45800Y205275D01*
G37*
G54D18*
X50800Y203200D02*
X82500Y203200D01*
X85700Y206400D01*
G54D14*
X235100Y184900D02*
X247000Y240500D01*
X247000Y292500D01*
X330200Y342900D01*
X330200Y408100D01*
X328400Y409900D01*
G36*
X579800Y131600D02*
X591500Y143300D01*
X608100Y143300D01*
X619800Y131600D01*
X619800Y115000D01*
X608100Y103300D01*
X591500Y103300D01*
X579800Y115000D01*
X579800Y131600D01*
G37*
G36*
X2400Y689900D02*
X14100Y701600D01*
X30700Y701600D01*
X42400Y689900D01*
X42400Y673300D01*
X30700Y661600D01*
X14100Y661600D01*
X2400Y673300D01*
X2400Y689900D01*
G37*
G36*
X580000Y691300D02*
X591700Y703000D01*
X608300Y703000D01*
X620000Y691300D01*
X620000Y674700D01*
X608300Y663000D01*
X591700Y663000D01*
X580000Y674700D01*
X580000Y691300D01*
G37*
G36*
X1000Y132300D02*
X12700Y144000D01*
X29300Y144000D01*
X41000Y132300D01*
X41000Y115700D01*
X29300Y104000D01*
X12700Y104000D01*
X1000Y115700D01*
X1000Y132300D01*
G37*
G36*
X511000Y228000D02*
X511000Y185000D01*
X512000Y184000D01*
X578000Y184000D01*
X578000Y223000D01*
X526300Y223000D01*
X520700Y228600D01*
X511600Y228600D01*
X511000Y228000D01*
G37*
G54D14*
X511000Y228000D02*
X511000Y185000D01*
X512000Y184000D01*
X578000Y184000D01*
X578000Y223000D01*
X526300Y223000D01*
X520700Y228600D01*
X511600Y228600D01*
X511000Y228000D01*
G36*
X362000Y702000D02*
X619000Y702000D01*
X619000Y595000D01*
X616000Y592000D01*
X616000Y643000D01*
X548000Y643000D01*
X547000Y642000D01*
X412000Y642000D01*
X403000Y651000D01*
X403000Y680000D01*
X385000Y698000D01*
X372000Y698000D01*
X371000Y699000D01*
X362000Y702000D01*
G37*
G54D14*
X362000Y702000D02*
X619000Y702000D01*
X619000Y595000D01*
X616000Y592000D01*
X616000Y643000D01*
X548000Y643000D01*
X547000Y642000D01*
X412000Y642000D01*
X403000Y651000D01*
X403000Y680000D01*
X385000Y698000D01*
X372000Y698000D01*
X371000Y699000D01*
X362000Y702000D01*
G36*
X315000Y699000D02*
X315000Y650000D01*
X319000Y646000D01*
X363000Y646000D01*
X364000Y647000D01*
X364000Y692000D01*
X371000Y699000D01*
X315000Y699000D01*
G37*
G54D14*
X315000Y699000D02*
X315000Y650000D01*
X319000Y646000D01*
X363000Y646000D01*
X364000Y647000D01*
X364000Y692000D01*
X371000Y699000D01*
X315000Y699000D01*
G36*
X3000Y701000D02*
X321000Y701000D01*
X324000Y698000D01*
X324000Y697000D01*
X317000Y690000D01*
X58000Y690000D01*
X43000Y675000D01*
X43000Y673000D01*
X39000Y669000D01*
X3000Y669000D01*
X2000Y670000D01*
X2000Y700000D01*
X3000Y701000D01*
G37*
G54D14*
X3000Y701000D02*
X321000Y701000D01*
X324000Y698000D01*
X324000Y697000D01*
X317000Y690000D01*
X58000Y690000D01*
X43000Y675000D01*
X43000Y673000D01*
X39000Y669000D01*
X3000Y669000D01*
X2000Y670000D01*
X2000Y700000D01*
X3000Y701000D01*
G36*
X171000Y688000D02*
X171000Y571000D01*
X181000Y561000D01*
X233000Y561000D01*
X234000Y560000D01*
X234000Y600000D01*
X238000Y604000D01*
X240000Y604000D01*
X262000Y626000D01*
X262000Y686000D01*
X264000Y688000D01*
X171000Y688000D01*
G37*
G54D14*
X171000Y688000D02*
X171000Y571000D01*
X181000Y561000D01*
X233000Y561000D01*
X234000Y560000D01*
X234000Y600000D01*
X238000Y604000D01*
X240000Y604000D01*
X262000Y626000D01*
X262000Y686000D01*
X264000Y688000D01*
X171000Y688000D01*
G54D14*
X12700Y177800D02*
X12700Y132300D01*
X21000Y124000D01*
X25000Y124000D01*
X37000Y112000D01*
X45000Y112000D01*
X50000Y107000D01*
X151000Y110000D01*
X151000Y151000D01*
X152400Y152400D01*
G54D14*
X76200Y342900D02*
X86100Y342900D01*
X98000Y331000D01*
X132000Y331000D01*
X133000Y332000D01*
X137000Y332000D01*
X175000Y370000D01*
X175000Y402000D01*
X191000Y418000D01*
X291000Y418000D01*
X292100Y419100D01*
X156300Y368300D02*
G54D16*
D03*
G36*
X3000Y669000D02*
X3000Y651700D01*
X7000Y647700D01*
X38100Y647700D01*
X50800Y647700D01*
X63500Y635000D01*
X63500Y690500D01*
X64000Y691000D01*
X3000Y669000D01*
G37*
G54D14*
X3000Y669000D02*
X3000Y651700D01*
X7000Y647700D01*
X38100Y647700D01*
X50800Y647700D01*
X63500Y635000D01*
X63500Y690500D01*
X64000Y691000D01*
X3000Y669000D01*
G36*
X16000Y646000D02*
X16000Y257300D01*
X12700Y254000D01*
X6400Y254000D01*
X0Y260400D01*
X0Y648700D01*
X3000Y651700D01*
X16000Y646000D01*
G37*
G54D14*
X16000Y646000D02*
X16000Y257300D01*
X12700Y254000D01*
X6400Y254000D01*
X0Y260400D01*
X0Y648700D01*
X3000Y651700D01*
X16000Y646000D01*
G36*
X16000Y299000D02*
X31200Y299000D01*
X38100Y292100D01*
X38100Y280100D01*
X38000Y280000D01*
X32400Y280000D01*
X19100Y266700D01*
X16000Y299000D01*
G37*
G54D14*
X16000Y299000D02*
X31200Y299000D01*
X38100Y292100D01*
X38100Y280100D01*
X38000Y280000D01*
X32400Y280000D01*
X19100Y266700D01*
X16000Y299000D01*
G36*
X12700Y254000D02*
X12700Y177800D01*
X12700Y158300D01*
X28000Y143000D01*
X30000Y143000D01*
X43000Y130000D01*
X43000Y114000D01*
X45000Y112000D01*
X45000Y107000D01*
X43000Y105000D01*
X5000Y105000D01*
X4000Y104000D01*
X4000Y245300D01*
X12700Y254000D01*
G37*
G54D14*
X12700Y254000D02*
X12700Y177800D01*
X12700Y158300D01*
X28000Y143000D01*
X30000Y143000D01*
X43000Y130000D01*
X43000Y114000D01*
X45000Y112000D01*
X45000Y107000D01*
X43000Y105000D01*
X5000Y105000D01*
X4000Y104000D01*
X4000Y245300D01*
X12700Y254000D01*
G36*
X3000Y272000D02*
X3000Y236000D01*
X7000Y232000D01*
X7000Y248300D01*
X12700Y254000D01*
X3000Y272000D01*
G37*
G54D14*
X3000Y272000D02*
X3000Y236000D01*
X7000Y232000D01*
X7000Y248300D01*
X12700Y254000D01*
X3000Y272000D01*
X132000Y281000D02*
G54D16*
D03*
X219000Y298000D02*
G54D16*
D03*
X89000Y301000D02*
G54D16*
D03*
G54D18*
X89000Y301000D02*
X216000Y301000D01*
X219000Y298000D01*
G36*
X614000Y605000D02*
X610600Y605000D01*
X596900Y591300D01*
X599700Y591300D01*
X603000Y588000D01*
X612000Y588000D01*
X615300Y591300D01*
X615300Y603700D01*
X614000Y605000D01*
G37*
G54D18*
X614000Y605000D02*
X610600Y605000D01*
X596900Y591300D01*
X599700Y591300D01*
X603000Y588000D01*
X612000Y588000D01*
X615300Y591300D01*
X615300Y603700D01*
X614000Y605000D01*
G36*
X575000Y645000D02*
X568000Y645000D01*
X550000Y627000D01*
X550000Y641000D01*
X548000Y643000D01*
X566000Y643000D01*
X568000Y645000D01*
X575000Y645000D01*
G37*
G54D18*
X575000Y645000D02*
X568000Y645000D01*
X550000Y627000D01*
X550000Y641000D01*
X548000Y643000D01*
X566000Y643000D01*
X568000Y645000D01*
X575000Y645000D01*
G36*
X594000Y646000D02*
X594000Y641000D01*
X613000Y622000D01*
X613000Y640000D01*
X616000Y643000D01*
X596000Y643000D01*
X594000Y641000D01*
X594000Y646000D01*
G37*
G54D18*
X594000Y646000D02*
X594000Y641000D01*
X613000Y622000D01*
X613000Y640000D01*
X616000Y643000D01*
X596000Y643000D01*
X594000Y641000D01*
X594000Y646000D01*
G54D14*
X292100Y444500D02*
X325500Y444500D01*
X327000Y446000D01*
X327000Y411300D01*
X328400Y409900D01*
X326000Y571000D02*
G54D20*
D03*
X326000Y546000D02*
G54D21*
D03*
X326000Y520000D02*
G54D21*
D03*
X325000Y496000D02*
G54D21*
D03*
X324000Y470000D02*
G54D20*
D03*
G36*
X171000Y571000D02*
X171000Y440000D01*
X175000Y436000D01*
X259000Y436000D01*
X260000Y437000D01*
X260000Y534000D01*
X233000Y561000D01*
X171000Y571000D01*
G37*
G54D14*
X171000Y571000D02*
X171000Y440000D01*
X175000Y436000D01*
X259000Y436000D01*
X260000Y437000D01*
X260000Y534000D01*
X233000Y561000D01*
X171000Y571000D01*
G36*
X166000Y482075D02*
X168925Y485000D01*
X173075Y485000D01*
X176000Y482075D01*
X176000Y477925D01*
X173075Y475000D01*
X168925Y475000D01*
X166000Y477925D01*
X166000Y482075D01*
G37*
G54D14*
X171000Y480000D02*
X163000Y472000D01*
X163000Y375000D01*
X156300Y368300D01*
G36*
X163000Y472000D02*
X178000Y472000D01*
X179000Y473000D01*
X179000Y440000D01*
X176000Y437000D01*
X173000Y437000D01*
X167000Y431000D01*
X163000Y472000D01*
G37*
G54D14*
X163000Y472000D02*
X178000Y472000D01*
X179000Y473000D01*
X179000Y440000D01*
X176000Y437000D01*
X173000Y437000D01*
X167000Y431000D01*
X163000Y472000D01*
G36*
X166000Y414000D02*
X171000Y414000D01*
X190000Y433000D01*
X169000Y433000D01*
X167000Y431000D01*
X167000Y415000D01*
X166000Y414000D01*
G37*
G54D14*
X166000Y414000D02*
X171000Y414000D01*
X190000Y433000D01*
X169000Y433000D01*
X167000Y431000D01*
X167000Y415000D01*
X166000Y414000D01*
G36*
X36000Y232075D02*
X38925Y235000D01*
X43075Y235000D01*
X46000Y232075D01*
X46000Y227925D01*
X43075Y225000D01*
X38925Y225000D01*
X36000Y227925D01*
X36000Y232075D01*
G37*
G36*
X83000Y248075D02*
X85925Y251000D01*
X90075Y251000D01*
X93000Y248075D01*
X93000Y243925D01*
X90075Y241000D01*
X85925Y241000D01*
X83000Y243925D01*
X83000Y248075D01*
G37*
G54D14*
X41000Y230000D02*
X59300Y230000D01*
X73400Y244100D01*
X86100Y244100D01*
X88000Y246000D01*
G54D14*
X151000Y110000D02*
X153000Y110000D01*
X159000Y104000D01*
X347000Y104000D01*
X348000Y105000D01*
G54D14*
X45000Y107000D02*
X156000Y107000D01*
X159000Y104000D01*
G54D14*
X150000Y134000D02*
X85000Y134000D01*
X84000Y135000D01*
X64000Y135000D01*
X43000Y114000D01*
G36*
X152400Y152400D02*
X106400Y152400D01*
X92000Y138000D01*
X74500Y138000D01*
X63500Y127000D01*
X60000Y127000D01*
X45000Y112000D01*
X45000Y107000D01*
X148000Y107000D01*
X151000Y110000D01*
X152400Y152400D01*
G37*
G54D14*
X152400Y152400D02*
X106400Y152400D01*
X92000Y138000D01*
X74500Y138000D01*
X63500Y127000D01*
X60000Y127000D01*
X45000Y112000D01*
X45000Y107000D01*
X148000Y107000D01*
X151000Y110000D01*
X152400Y152400D01*
G36*
X519000Y183000D02*
X519000Y141000D01*
X504000Y126000D01*
X504000Y228000D01*
X503000Y229000D01*
X519000Y183000D01*
G37*
G54D14*
X519000Y183000D02*
X519000Y141000D01*
X504000Y126000D01*
X504000Y228000D01*
X503000Y229000D01*
X519000Y183000D01*
X327000Y623000D02*
G54D20*
D03*
G36*
X131700Y681100D02*
X147700Y681100D01*
X147700Y665100D01*
X131700Y665100D01*
X131700Y681100D01*
G37*
G54D14*
X340000Y533000D02*
X355200Y533000D01*
X355600Y533400D01*
X355600Y558800D01*
X368300Y571500D01*
X406400Y571500D01*
G54D14*
X355200Y533000D02*
X355200Y521100D01*
X368300Y508000D01*
X431800Y508000D01*
X444500Y495300D01*
X469900Y495300D01*
X342800Y114100D02*
G54D16*
D03*
G36*
X368300Y266700D02*
X447300Y266700D01*
X450000Y264000D01*
X368300Y266700D01*
G37*
G54D14*
X368300Y266700D02*
X447300Y266700D01*
X450000Y264000D01*
X368300Y266700D01*
X368300Y215900D02*
G54D16*
D03*
X407800Y203100D02*
G54D16*
D03*
G54D14*
X368300Y266700D02*
X368300Y215900D01*
X384800Y246100D02*
G54D16*
D03*
G54D14*
X384800Y246100D02*
X384800Y245200D01*
X394000Y236000D01*
X394000Y206100D01*
X396900Y203200D01*
X407700Y203200D01*
X407800Y203100D01*
X537800Y197100D02*
G54D16*
D03*
G36*
X574200Y601300D02*
X594200Y601300D01*
X594200Y581300D01*
X574200Y581300D01*
X574200Y601300D01*
G37*
G36*
X606000Y632000D02*
X606000Y599000D01*
X607000Y598000D01*
X609600Y598000D01*
X615300Y603700D01*
X615300Y619700D01*
X613000Y622000D01*
X613000Y625000D01*
X606000Y632000D01*
G37*
G54D14*
X606000Y632000D02*
X606000Y599000D01*
X607000Y598000D01*
X609600Y598000D01*
X615300Y603700D01*
X615300Y619700D01*
X613000Y622000D01*
X613000Y625000D01*
X606000Y632000D01*
G36*
X463000Y181000D02*
X507000Y181000D01*
X511000Y185000D01*
X511000Y131000D01*
X510000Y130000D01*
X468000Y130000D01*
X463000Y135000D01*
X463000Y181000D01*
G37*
G54D14*
X463000Y181000D02*
X507000Y181000D01*
X511000Y185000D01*
X511000Y131000D01*
X510000Y130000D01*
X468000Y130000D01*
X463000Y135000D01*
X463000Y181000D01*
G36*
X457000Y265000D02*
X506000Y265000D01*
X507000Y264000D01*
X507000Y222000D01*
X504000Y219000D01*
X464000Y219000D01*
X462000Y217000D01*
X462000Y259000D01*
X461000Y260000D01*
X457000Y265000D01*
G37*
G54D14*
X457000Y265000D02*
X506000Y265000D01*
X507000Y264000D01*
X507000Y222000D01*
X504000Y219000D01*
X464000Y219000D01*
X462000Y217000D01*
X462000Y259000D01*
X461000Y260000D01*
X457000Y265000D01*
G36*
X106400Y152400D02*
X106400Y200400D01*
X107000Y201000D01*
X146000Y201000D01*
X146000Y158800D01*
X152400Y152400D01*
X106400Y152400D01*
G37*
G54D14*
X106400Y152400D02*
X106400Y200400D01*
X107000Y201000D01*
X146000Y201000D01*
X146000Y158800D01*
X152400Y152400D01*
X106400Y152400D01*
G36*
X12700Y177800D02*
X12700Y174300D01*
X60000Y127000D01*
X52000Y127000D01*
X46000Y121000D01*
X21000Y146000D01*
X21000Y169500D01*
X12700Y177800D01*
G37*
G54D14*
X12700Y177800D02*
X12700Y174300D01*
X60000Y127000D01*
X52000Y127000D01*
X46000Y121000D01*
X21000Y146000D01*
X21000Y169500D01*
X12700Y177800D01*
G54D14*
X397000Y679000D02*
X397000Y671000D01*
X399000Y669000D01*
X487000Y239000D02*
G54D16*
D03*
X443000Y287000D02*
G54D16*
D03*
X580000Y429000D02*
G54D16*
D03*
G54D18*
X469900Y495300D02*
X495300Y495300D01*
G36*
X580000Y429000D02*
X620000Y429000D01*
X620000Y161000D01*
X619000Y160000D01*
X602000Y160000D01*
X600000Y158000D01*
X600000Y428000D01*
X580000Y429000D01*
G37*
G54D18*
X580000Y429000D02*
X620000Y429000D01*
X620000Y161000D01*
X619000Y160000D01*
X602000Y160000D01*
X600000Y158000D01*
X600000Y428000D01*
X580000Y429000D01*
X606000Y475000D02*
G54D16*
D03*
G54D18*
X598000Y473000D02*
X604000Y473000D01*
X606000Y475000D01*
X560000Y498000D02*
G54D16*
D03*
X441000Y425000D02*
G54D16*
D03*
G54D18*
X441000Y425000D02*
X527000Y425000D01*
X533000Y431000D01*
X533000Y493000D01*
X537000Y497000D01*
X559000Y497000D01*
X560000Y498000D01*
G54D18*
X441000Y425000D02*
X441000Y289000D01*
X443000Y287000D01*
X381000Y455000D02*
G54D16*
D03*
G54D18*
X381000Y455000D02*
X411000Y455000D01*
X441000Y425000D01*
G36*
X552400Y355600D02*
X552400Y263600D01*
X558000Y258000D01*
X559000Y258000D01*
X590000Y227000D01*
X609000Y227000D01*
X613000Y223000D01*
X613000Y408000D01*
X576000Y408000D01*
X573000Y405000D01*
X573000Y363000D01*
X566000Y356000D01*
X566000Y355000D01*
X560000Y349000D01*
X560000Y344000D01*
X562000Y342000D01*
X552400Y355600D01*
G37*
G54D18*
X552400Y355600D02*
X552400Y263600D01*
X558000Y258000D01*
X559000Y258000D01*
X590000Y227000D01*
X609000Y227000D01*
X613000Y223000D01*
X613000Y408000D01*
X576000Y408000D01*
X573000Y405000D01*
X573000Y363000D01*
X566000Y356000D01*
X566000Y355000D01*
X560000Y349000D01*
X560000Y344000D01*
X562000Y342000D01*
X552400Y355600D01*
G36*
X565000Y257000D02*
X565000Y222000D01*
X569000Y218000D01*
X593000Y218000D01*
X596000Y221000D01*
X596000Y237000D01*
X590000Y243000D01*
X578000Y243000D01*
X572000Y249000D01*
X565000Y257000D01*
G37*
G54D18*
X565000Y257000D02*
X565000Y222000D01*
X569000Y218000D01*
X593000Y218000D01*
X596000Y221000D01*
X596000Y237000D01*
X590000Y243000D01*
X578000Y243000D01*
X572000Y249000D01*
X565000Y257000D01*
G36*
X584200Y591300D02*
X615700Y591300D01*
X620000Y587000D01*
X620000Y518000D01*
X619000Y517000D01*
X540000Y517000D01*
X539000Y518000D01*
X539000Y591000D01*
X540000Y592000D01*
X599000Y592000D01*
X599700Y591300D01*
X584200Y591300D01*
G37*
G54D18*
X584200Y591300D02*
X615700Y591300D01*
X620000Y587000D01*
X620000Y518000D01*
X619000Y517000D01*
X540000Y517000D01*
X539000Y518000D01*
X539000Y591000D01*
X540000Y592000D01*
X599000Y592000D01*
X599700Y591300D01*
X584200Y591300D01*
G36*
X554000Y633000D02*
X554000Y590000D01*
X556000Y588000D01*
X471000Y588000D01*
X470000Y587000D01*
X470000Y546200D01*
X469900Y546100D01*
X457900Y546100D01*
X455000Y549000D01*
X457900Y546100D01*
X434100Y546100D01*
X433000Y545000D01*
X433000Y590000D01*
X432000Y591000D01*
X468000Y591000D01*
X471000Y588000D01*
X554000Y633000D01*
G37*
G54D18*
X554000Y633000D02*
X554000Y590000D01*
X556000Y588000D01*
X471000Y588000D01*
X470000Y587000D01*
X470000Y546200D01*
X469900Y546100D01*
X457900Y546100D01*
X455000Y549000D01*
X457900Y546100D01*
X434100Y546100D01*
X433000Y545000D01*
X433000Y590000D01*
X432000Y591000D01*
X468000Y591000D01*
X471000Y588000D01*
X554000Y633000D01*
G36*
X426000Y644000D02*
X426000Y597000D01*
X432000Y591000D01*
X514000Y591000D01*
X550000Y627000D01*
X550000Y646000D01*
X547000Y649000D01*
X431000Y649000D01*
X428000Y652000D01*
X428000Y637000D01*
X427000Y636000D01*
X426000Y644000D01*
G37*
G54D18*
X426000Y644000D02*
X426000Y597000D01*
X432000Y591000D01*
X514000Y591000D01*
X550000Y627000D01*
X550000Y646000D01*
X547000Y649000D01*
X431000Y649000D01*
X428000Y652000D01*
X428000Y637000D01*
X427000Y636000D01*
X426000Y644000D01*
G54D17*
X171600Y197300D02*
X171600Y118900D01*
X172500Y118000D01*
X332646Y119800D01*
X331639Y120407D01*
X332339Y244839D01*
X335800Y248300D01*
X339500Y251000D01*
X345000Y266600D01*
X358000Y275500D01*
X379500Y291000D01*
X379500Y384000D01*
X415000Y426000D01*
X415000Y426000D02*
G54D16*
D03*
X455000Y439000D02*
G54D16*
D03*
G54D14*
X455000Y439000D02*
X504000Y439000D01*
X505000Y440000D01*
X505000Y495000D01*
X470200Y495000D01*
X469900Y495300D01*
G54D14*
X342800Y114100D02*
X342800Y108200D01*
X347000Y104000D01*
G36*
X342800Y114100D02*
X507900Y114100D01*
X511000Y111000D01*
X511000Y103000D01*
X350000Y103000D01*
X348000Y105000D01*
X348000Y108900D01*
X342800Y114100D01*
G37*
G54D14*
X342800Y114100D02*
X507900Y114100D01*
X511000Y111000D01*
X511000Y103000D01*
X350000Y103000D01*
X348000Y105000D01*
X348000Y108900D01*
X342800Y114100D01*
G36*
X462000Y145000D02*
X462000Y115000D01*
X461000Y114000D01*
X507800Y114000D01*
X507900Y114100D01*
X507900Y127900D01*
X511000Y131000D01*
X476000Y131000D01*
X462000Y145000D01*
G37*
G54D14*
X462000Y145000D02*
X462000Y115000D01*
X461000Y114000D01*
X507800Y114000D01*
X507900Y114100D01*
X507900Y127900D01*
X511000Y131000D01*
X476000Y131000D01*
X462000Y145000D01*
G36*
X540000Y349000D02*
X540000Y269000D01*
X547000Y269000D01*
X552400Y263600D01*
X540000Y349000D01*
G37*
G54D14*
X540000Y349000D02*
X540000Y269000D01*
X547000Y269000D01*
X552400Y263600D01*
X540000Y349000D01*
G36*
X571500Y241300D02*
X571500Y345500D01*
X573000Y347000D01*
X561000Y347000D01*
X552400Y355600D01*
X552400Y349400D01*
X544000Y341000D01*
X571500Y241300D01*
G37*
G54D14*
X571500Y241300D02*
X571500Y345500D01*
X573000Y347000D01*
X561000Y347000D01*
X552400Y355600D01*
X552400Y349400D01*
X544000Y341000D01*
X571500Y241300D01*
G36*
X619000Y517000D02*
X619000Y430000D01*
X620000Y429000D01*
X619000Y517000D01*
G37*
G54D14*
X619000Y517000D02*
X619000Y430000D01*
X620000Y429000D01*
X619000Y517000D01*
G36*
X469900Y546100D02*
X541100Y546100D01*
X543000Y548000D01*
X543000Y589000D01*
X540000Y592000D01*
X469000Y592000D01*
X468000Y591000D01*
X468000Y548000D01*
X469900Y546100D01*
G37*
G54D14*
X469900Y546100D02*
X541100Y546100D01*
X543000Y548000D01*
X543000Y589000D01*
X540000Y592000D01*
X469000Y592000D01*
X468000Y591000D01*
X468000Y548000D01*
X469900Y546100D01*
X501600Y406400D02*
G54D22*
D03*
X501600Y381000D02*
G54D22*
D03*
X501600Y330200D02*
G54D22*
D03*
X501600Y304800D02*
G54D22*
D03*
X552400Y355600D02*
G54D22*
D03*
G36*
X28100Y657700D02*
X48100Y657700D01*
X48100Y637700D01*
X28100Y637700D01*
X28100Y657700D01*
G37*
X38100Y622300D02*
G54D11*
D03*
X38100Y622300D02*
G54D12*
D03*
X38100Y596900D02*
G54D12*
D03*
X38100Y571500D02*
G54D12*
D03*
X38100Y533400D02*
G54D12*
D03*
X38100Y508000D02*
G54D12*
D03*
X38100Y482600D02*
G54D12*
D03*
X38100Y457200D02*
G54D12*
D03*
X38100Y431800D02*
G54D12*
D03*
X38100Y393700D02*
G54D12*
D03*
X38100Y368300D02*
G54D12*
D03*
X38100Y342900D02*
G54D12*
D03*
X38100Y317500D02*
G54D12*
D03*
G36*
X28100Y302100D02*
X48100Y302100D01*
X48100Y282100D01*
X28100Y282100D01*
X28100Y302100D01*
G37*
X469900Y546100D02*
G54D12*
D03*
X469900Y520700D02*
G54D12*
D03*
X469900Y495300D02*
G54D12*
D03*
X469900Y469900D02*
G54D12*
D03*
X221000Y214500D02*
G54D16*
D03*
X235100Y184900D02*
G54D16*
D03*
X223000Y197000D02*
G54D16*
D03*
X171600Y197300D02*
G54D16*
D03*
X163800Y214700D02*
G54D16*
D03*
G54D17*
X132000Y281000D02*
X139400Y281000D01*
X162800Y257600D01*
X162800Y215700D01*
X163800Y214700D01*
G36*
X107000Y201000D02*
X107000Y270000D01*
X107500Y270500D01*
X126900Y270500D01*
X129200Y268200D01*
X130100Y268200D01*
X136300Y262000D01*
X138100Y262000D01*
X149600Y250500D01*
X149600Y201800D01*
X150000Y201400D01*
X107400Y201400D01*
X106400Y200400D01*
X107000Y201000D01*
G37*
G54D17*
X107000Y201000D02*
X107000Y270000D01*
X107500Y270500D01*
X126900Y270500D01*
X129200Y268200D01*
X130100Y268200D01*
X136300Y262000D01*
X138100Y262000D01*
X149600Y250500D01*
X149600Y201800D01*
X150000Y201400D01*
X107400Y201400D01*
X106400Y200400D01*
X107000Y201000D01*
G36*
X105800Y261600D02*
X57100Y261600D01*
X54900Y263800D01*
X54400Y263800D01*
X38100Y280100D01*
X38100Y292100D01*
X77900Y292100D01*
X80100Y289900D01*
X87100Y289900D01*
X107000Y270000D01*
X107000Y262800D01*
X105800Y261600D01*
G37*
G54D17*
X105800Y261600D02*
X57100Y261600D01*
X54900Y263800D01*
X54400Y263800D01*
X38100Y280100D01*
X38100Y292100D01*
X77900Y292100D01*
X80100Y289900D01*
X87100Y289900D01*
X107000Y270000D01*
X107000Y262800D01*
X105800Y261600D01*
G36*
X148200Y165600D02*
X159700Y165600D01*
X160200Y165100D01*
X160200Y105200D01*
X159000Y104000D01*
X151000Y104000D01*
X148000Y107000D01*
X148000Y156800D01*
X146000Y158800D01*
X146000Y163400D01*
X148200Y165600D01*
G37*
G54D17*
X148200Y165600D02*
X159700Y165600D01*
X160200Y165100D01*
X160200Y105200D01*
X159000Y104000D01*
X151000Y104000D01*
X148000Y107000D01*
X148000Y156800D01*
X146000Y158800D01*
X146000Y163400D01*
X148200Y165600D01*
X160200Y175300D02*
G54D16*
D03*
G54D17*
X160200Y175300D02*
X160200Y166100D01*
X159700Y165600D01*
G36*
X146500Y196600D02*
X160600Y196600D01*
X161100Y196100D01*
X161100Y167000D01*
X160200Y166100D01*
X148700Y166100D01*
X148200Y165600D01*
X148200Y194900D01*
X146500Y196600D01*
G37*
G54D17*
X146500Y196600D02*
X160600Y196600D01*
X161100Y196100D01*
X161100Y167000D01*
X160200Y166100D01*
X148700Y166100D01*
X148200Y165600D01*
X148200Y194900D01*
X146500Y196600D01*
G54D18*
X219000Y298000D02*
X219000Y216500D01*
X221000Y214500D01*
X235400Y142100D02*
G54D16*
D03*
G54D17*
X85700Y206400D02*
X108500Y206400D01*
X109300Y207200D01*
G54D17*
X100300Y206000D02*
X108100Y206000D01*
X109300Y207200D01*
G36*
X151000Y110000D02*
X346900Y110000D01*
X348000Y108900D01*
X151000Y110000D01*
G37*
G54D18*
X151000Y110000D02*
X346900Y110000D01*
X348000Y108900D01*
X151000Y110000D01*
G36*
X346100Y150700D02*
X346100Y117400D01*
X342800Y114100D01*
X478800Y114100D01*
X481300Y116600D01*
X481300Y151000D01*
X480600Y151700D01*
X347100Y151700D01*
X346100Y150700D01*
G37*
G54D14*
X346100Y150700D02*
X346100Y117400D01*
X342800Y114100D01*
X478800Y114100D01*
X481300Y116600D01*
X481300Y151000D01*
X480600Y151700D01*
X347100Y151700D01*
X346100Y150700D01*
G36*
X346100Y154100D02*
X346100Y185100D01*
X349300Y188300D01*
X414900Y188300D01*
X414900Y152500D01*
X355700Y152500D01*
X355600Y152400D01*
X346100Y154100D01*
G37*
G54D14*
X346100Y154100D02*
X346100Y185100D01*
X349300Y188300D01*
X414900Y188300D01*
X414900Y152500D01*
X355700Y152500D01*
X355600Y152400D01*
X346100Y154100D01*
G36*
X448500Y154700D02*
X448500Y188500D01*
X448000Y189000D01*
X513000Y189000D01*
X519000Y183000D01*
X519000Y159500D01*
X516400Y156900D01*
X450700Y156900D01*
X448500Y154700D01*
G37*
G54D14*
X448500Y154700D02*
X448500Y188500D01*
X448000Y189000D01*
X513000Y189000D01*
X519000Y183000D01*
X519000Y159500D01*
X516400Y156900D01*
X450700Y156900D01*
X448500Y154700D01*
G36*
X436600Y239000D02*
X465000Y239000D01*
X465700Y238300D01*
X465700Y196300D01*
X466300Y195700D01*
X447000Y195700D01*
X447000Y204700D01*
X445500Y206200D01*
X445500Y207700D01*
X428400Y224800D01*
X428400Y238300D01*
X435900Y238300D01*
X436600Y239000D01*
G37*
G54D14*
X436600Y239000D02*
X465000Y239000D01*
X465700Y238300D01*
X465700Y196300D01*
X466300Y195700D01*
X447000Y195700D01*
X447000Y204700D01*
X445500Y206200D01*
X445500Y207700D01*
X428400Y224800D01*
X428400Y238300D01*
X435900Y238300D01*
X436600Y239000D01*
G54D23*
X211400Y327200D02*
X211400Y316200D01*
G54D23*
X197100Y327200D02*
X197100Y316200D01*
G54D17*
X100300Y206000D02*
X109100Y206000D01*
X120900Y194200D01*
G54D18*
X501600Y406400D02*
X547200Y406400D01*
X548500Y407700D01*
X548500Y466600D01*
X556700Y474800D01*
X605800Y474800D01*
X606000Y475000D01*
G36*
X538100Y362200D02*
X538100Y392000D01*
X576100Y392000D01*
X577800Y393700D01*
X577800Y367800D01*
X573000Y363000D01*
X559800Y363000D01*
X552400Y355600D01*
X538100Y362200D01*
G37*
G54D14*
X538100Y362200D02*
X538100Y392000D01*
X576100Y392000D01*
X577800Y393700D01*
X577800Y367800D01*
X573000Y363000D01*
X559800Y363000D01*
X552400Y355600D01*
X538100Y362200D01*
G36*
X563400Y427100D02*
X563400Y391300D01*
X566400Y388300D01*
X597800Y388300D01*
X601500Y392000D01*
X601500Y426500D01*
X600000Y428000D01*
X564300Y428000D01*
X563400Y427100D01*
G37*
G54D14*
X563400Y427100D02*
X563400Y391300D01*
X566400Y388300D01*
X597800Y388300D01*
X601500Y392000D01*
X601500Y426500D01*
X600000Y428000D01*
X564300Y428000D01*
X563400Y427100D01*
G36*
X501500Y282300D02*
X539500Y282300D01*
X541000Y280800D01*
X541000Y270000D01*
X540000Y269000D01*
X523000Y269000D01*
X504000Y250000D01*
X504000Y258200D01*
X497800Y264400D01*
X497800Y278600D01*
X501500Y282300D01*
G37*
G54D14*
X501500Y282300D02*
X539500Y282300D01*
X541000Y280800D01*
X541000Y270000D01*
X540000Y269000D01*
X523000Y269000D01*
X504000Y250000D01*
X504000Y258200D01*
X497800Y264400D01*
X497800Y278600D01*
X501500Y282300D01*
G54D14*
X38100Y596900D02*
X39900Y596900D01*
X57500Y579300D01*
X57500Y552400D01*
X59700Y550200D01*
X72100Y550200D01*
X76200Y546100D01*
G54D14*
X368300Y215900D02*
X368300Y184100D01*
X370100Y182300D01*
G36*
X519000Y141000D02*
X560700Y141000D01*
X562700Y139000D01*
X562700Y148700D01*
X566000Y152000D01*
X566700Y152000D01*
X573900Y159200D01*
X618200Y159200D01*
X619000Y160000D01*
X619000Y106500D01*
X617900Y105400D01*
X505200Y105400D01*
X503700Y103900D01*
X503700Y123700D01*
X511000Y131000D01*
X518100Y131000D01*
X529100Y142000D01*
X519000Y141000D01*
G37*
G54D14*
X519000Y141000D02*
X560700Y141000D01*
X562700Y139000D01*
X562700Y148700D01*
X566000Y152000D01*
X566700Y152000D01*
X573900Y159200D01*
X618200Y159200D01*
X619000Y160000D01*
X619000Y106500D01*
X617900Y105400D01*
X505200Y105400D01*
X503700Y103900D01*
X503700Y123700D01*
X511000Y131000D01*
X518100Y131000D01*
X529100Y142000D01*
X519000Y141000D01*
G36*
X520100Y147200D02*
X570100Y147200D01*
X571600Y145700D01*
X520100Y147200D01*
G37*
G54D14*
X520100Y147200D02*
X570100Y147200D01*
X571600Y145700D01*
X520100Y147200D01*
G36*
X578000Y184000D02*
X578000Y163300D01*
X573900Y159200D01*
X601200Y159200D01*
X602000Y160000D01*
X602000Y220000D01*
X609000Y227000D01*
X582000Y227000D01*
X578000Y223000D01*
X578000Y163300D01*
X578000Y184000D01*
G37*
G54D14*
X578000Y184000D02*
X578000Y163300D01*
X573900Y159200D01*
X601200Y159200D01*
X602000Y160000D01*
X602000Y220000D01*
X609000Y227000D01*
X582000Y227000D01*
X578000Y223000D01*
X578000Y163300D01*
X578000Y184000D01*
G36*
X462000Y217000D02*
X502000Y217000D01*
X504000Y219000D01*
X504000Y184100D01*
X500700Y180800D01*
X463200Y180800D01*
X463000Y181000D01*
X463000Y218000D01*
X464000Y219000D01*
X462000Y217000D01*
G37*
G54D17*
X462000Y217000D02*
X502000Y217000D01*
X504000Y219000D01*
X504000Y184100D01*
X500700Y180800D01*
X463200Y180800D01*
X463000Y181000D01*
X463000Y218000D01*
X464000Y219000D01*
X462000Y217000D01*
M02*
