; Drill file
; Format: 2.4 (00.0000)
M48
INCH
T01C0.0118
T02C0.0236
T03C0.0315
T04C0.0472
T05C0.1181
%
G05
G90
T01
X002000Y008000
X001610Y009060
X003460Y009690
X003950Y008110
X006450Y008450
X006760Y007770
X006310Y006900
X008780Y007760
X009260Y007280
X008700Y008440
X009270Y005590
X013500Y004490
X017000Y006500
X016060Y008000
X014500Y008500
X015150Y009690
X016310Y009750
X015440Y011250
X017440Y011300
X019170Y009410
X021170Y007760
X015630Y013570
X016340Y016770
X017360Y016730
X017910Y017280
X015000Y017910
X016000Y022500
X022050Y019610
X023860Y018700
X022830Y016890
X008620Y011730
X005200Y011060
X003500Y011850
X006150Y014500
X006730Y018900
T02
X007760Y012670
X008320Y012670
X012760Y018500
X012800Y019530
X012830Y020470
X012830Y021500
X012830Y022480
X012870Y024530
T03
X000500Y007000
X001500Y007000
X002500Y006000
X001500Y010000
X000500Y010000
X001500Y011500
X001500Y012500
X001500Y013500
X001500Y014500
X001500Y015500
X003000Y015500
X003000Y016500
X003000Y017500
X003000Y018500
X003000Y019500
X003000Y020500
X003000Y021500
X003000Y022500
X003500Y023500
X003500Y024500
X003500Y025500
X003500Y026500
X005500Y026500
X005500Y025500
X005500Y024500
X005500Y023500
X005500Y022500
X005500Y021500
X005500Y020500
X005500Y019500
X005500Y018500
X005500Y017500
X005500Y016500
X005500Y015500
X003000Y014500
X003000Y013500
X003000Y012500
X001500Y017000
X001500Y018000
X001500Y019000
X001500Y020000
X001500Y021000
X001500Y022500
X001500Y023500
X001500Y024500
X001500Y025500
X010500Y023000
X010500Y022000
X011500Y022500
X011500Y023500
X011500Y024500
X011500Y025500
X011500Y026500
X011500Y021500
X011500Y020500
X011500Y019500
X011500Y018500
X011500Y017500
X011500Y016500
X011500Y015500
X018500Y018500
X018500Y019500
X018500Y020500
X018500Y021500
X023000Y023280
X023000Y024280
X021500Y009500
X021500Y006500
T04
X019750Y012000
X019750Y013000
X019750Y015000
X019750Y016000
X021750Y014000
T05
X000830Y004880
X000880Y026830
X023620Y026890
X023610Y004850
M30
