%FSLAX34Y34*%
%MOMM*%
%LNSOLDERMASK_BOTTOM*%
G71*
G01*
%ADD10C,2.120*%
%ADD11C,2.200*%
%ADD12C,2.600*%
%ADD13C,2.500*%
%ADD14C,1.600*%
%ADD15C,2.200*%
%ADD16C,2.600*%
%ADD17C,2.200*%
%ADD18C,2.600*%
%ADD19C,1.700*%
%LPD*%
G36*
X480500Y556700D02*
X480500Y535500D01*
X459300Y535500D01*
X459300Y556700D01*
X480500Y556700D01*
G37*
X469900Y520700D02*
G54D10*
D03*
X469900Y495300D02*
G54D10*
D03*
X469900Y469900D02*
G54D10*
D03*
X88900Y673100D02*
G54D11*
D03*
X88900Y647700D02*
G54D11*
D03*
X88900Y622300D02*
G54D11*
D03*
X88900Y596900D02*
G54D11*
D03*
X76200Y571500D02*
G54D12*
D03*
X76200Y546100D02*
G54D12*
D03*
X76200Y520700D02*
G54D12*
D03*
X76200Y495300D02*
G54D12*
D03*
X76200Y469900D02*
G54D12*
D03*
X76200Y444500D02*
G54D12*
D03*
X76200Y419100D02*
G54D12*
D03*
X76200Y393700D02*
G54D12*
D03*
X76200Y368300D02*
G54D12*
D03*
X76200Y342900D02*
G54D12*
D03*
X76200Y317500D02*
G54D12*
D03*
X584200Y616700D02*
G54D13*
D03*
X584200Y591300D02*
G54D13*
D03*
X38100Y177800D02*
G54D13*
D03*
X12700Y177800D02*
G54D13*
D03*
X38100Y254000D02*
G54D13*
D03*
X12700Y254000D02*
G54D13*
D03*
G36*
X48700Y658300D02*
X48700Y637100D01*
X27500Y637100D01*
X27500Y658300D01*
X48700Y658300D01*
G37*
X38100Y622300D02*
G54D10*
D03*
X38100Y596900D02*
G54D10*
D03*
X38100Y571500D02*
G54D10*
D03*
X266700Y584200D02*
G54D11*
D03*
X266700Y558800D02*
G54D11*
D03*
X406400Y571500D02*
G54D14*
D03*
X396900Y344600D02*
G54D14*
D03*
X431800Y165100D02*
G54D14*
D03*
X392200Y285700D02*
G54D14*
D03*
X414200Y247700D02*
G54D14*
D03*
X139700Y673100D02*
G54D11*
D03*
X139700Y647700D02*
G54D11*
D03*
X139700Y622300D02*
G54D11*
D03*
X139700Y596900D02*
G54D11*
D03*
X292100Y673100D02*
G54D11*
D03*
X292100Y647700D02*
G54D11*
D03*
X292100Y622300D02*
G54D11*
D03*
X292100Y596900D02*
G54D11*
D03*
X139700Y571500D02*
G54D11*
D03*
X292100Y571500D02*
G54D11*
D03*
X139700Y546100D02*
G54D11*
D03*
X139700Y520700D02*
G54D11*
D03*
X292100Y546100D02*
G54D11*
D03*
X292100Y520700D02*
G54D11*
D03*
X139700Y495300D02*
G54D11*
D03*
X292100Y495300D02*
G54D11*
D03*
X139700Y469900D02*
G54D11*
D03*
X292100Y469900D02*
G54D11*
D03*
X139700Y444500D02*
G54D11*
D03*
X292100Y444500D02*
G54D11*
D03*
X292100Y419100D02*
G54D11*
D03*
X292100Y393700D02*
G54D11*
D03*
X139700Y419100D02*
G54D11*
D03*
X139700Y393700D02*
G54D11*
D03*
G36*
X48700Y544000D02*
X48700Y522800D01*
X27500Y522800D01*
X27500Y544000D01*
X48700Y544000D01*
G37*
X38100Y508000D02*
G54D10*
D03*
X38100Y482600D02*
G54D10*
D03*
X38100Y457200D02*
G54D10*
D03*
X38100Y431800D02*
G54D10*
D03*
G36*
X27500Y281500D02*
X27500Y302700D01*
X48700Y302700D01*
X48700Y281500D01*
X27500Y281500D01*
G37*
X38100Y317500D02*
G54D10*
D03*
X38100Y342900D02*
G54D10*
D03*
X38100Y368300D02*
G54D10*
D03*
X38100Y393700D02*
G54D10*
D03*
G36*
X547005Y332600D02*
X539400Y340205D01*
X539400Y370995D01*
X547005Y378600D01*
X557795Y378600D01*
X565400Y370995D01*
X565400Y340205D01*
X557795Y332600D01*
X547005Y332600D01*
G37*
G36*
X496205Y358000D02*
X488600Y365605D01*
X488600Y396395D01*
X496205Y404000D01*
X506995Y404000D01*
X514600Y396395D01*
X514600Y365605D01*
X506995Y358000D01*
X496205Y358000D01*
G37*
G36*
X496205Y307200D02*
X488600Y314805D01*
X488600Y345595D01*
X496205Y353200D01*
X506995Y353200D01*
X514600Y345595D01*
X514600Y314805D01*
X506995Y307200D01*
X496205Y307200D01*
G37*
G36*
X496205Y383400D02*
X488600Y391005D01*
X488600Y421795D01*
X496205Y429400D01*
X506995Y429400D01*
X514600Y421795D01*
X514600Y391005D01*
X506995Y383400D01*
X496205Y383400D01*
G37*
G36*
X496205Y281800D02*
X488600Y289405D01*
X488600Y320195D01*
X496205Y327800D01*
X506995Y327800D01*
X514600Y320195D01*
X514600Y289405D01*
X506995Y281800D01*
X496205Y281800D01*
G37*
X546100Y241300D02*
G54D15*
D03*
G36*
X533100Y246695D02*
X540705Y254300D01*
X551495Y254300D01*
X559100Y246695D01*
X559100Y235905D01*
X551495Y228300D01*
X540705Y228300D01*
X533100Y235905D01*
X533100Y246695D01*
G37*
G36*
X533100Y178100D02*
X559100Y178100D01*
X559100Y152100D01*
X533100Y152100D01*
X533100Y178100D01*
G37*
G36*
X52500Y156965D02*
X58935Y163400D01*
X68065Y163400D01*
X74500Y156965D01*
X74500Y147835D01*
X68065Y141400D01*
X58935Y141400D01*
X52500Y147835D01*
X52500Y156965D01*
G37*
G36*
X92300Y209320D02*
X96980Y214000D01*
X103620Y214000D01*
X108300Y209320D01*
X108300Y202680D01*
X103620Y198000D01*
X96980Y198000D01*
X92300Y202680D01*
X92300Y209320D01*
G37*
G36*
X42800Y206520D02*
X47480Y211200D01*
X54120Y211200D01*
X58800Y206520D01*
X58800Y199880D01*
X54120Y195200D01*
X47480Y195200D01*
X42800Y199880D01*
X42800Y206520D01*
G37*
G36*
X576800Y132845D02*
X590255Y146300D01*
X609345Y146300D01*
X622800Y132845D01*
X622800Y113755D01*
X609345Y100300D01*
X590255Y100300D01*
X576800Y113755D01*
X576800Y132845D01*
G37*
G36*
X-600Y691145D02*
X12855Y704600D01*
X31945Y704600D01*
X45400Y691145D01*
X45400Y672055D01*
X31945Y658600D01*
X12855Y658600D01*
X-600Y672055D01*
X-600Y691145D01*
G37*
G36*
X577000Y692545D02*
X590455Y706000D01*
X609545Y706000D01*
X623000Y692545D01*
X623000Y673455D01*
X609545Y660000D01*
X590455Y660000D01*
X577000Y673455D01*
X577000Y692545D01*
G37*
G36*
X-2000Y133545D02*
X11455Y147000D01*
X30545Y147000D01*
X44000Y133545D01*
X44000Y114455D01*
X30545Y101000D01*
X11455Y101000D01*
X-2000Y114455D01*
X-2000Y133545D01*
G37*
X156300Y368300D02*
G54D14*
D03*
X132000Y281000D02*
G54D14*
D03*
X219000Y298000D02*
G54D14*
D03*
X89000Y301000D02*
G54D14*
D03*
X326000Y571000D02*
G54D16*
D03*
X326000Y546000D02*
G54D17*
D03*
X326000Y520000D02*
G54D17*
D03*
X325000Y496000D02*
G54D17*
D03*
X324000Y470000D02*
G54D16*
D03*
G36*
X163000Y483320D02*
X167680Y488000D01*
X174320Y488000D01*
X179000Y483320D01*
X179000Y476680D01*
X174320Y472000D01*
X167680Y472000D01*
X163000Y476680D01*
X163000Y483320D01*
G37*
G36*
X33000Y233320D02*
X37680Y238000D01*
X44320Y238000D01*
X49000Y233320D01*
X49000Y226680D01*
X44320Y222000D01*
X37680Y222000D01*
X33000Y226680D01*
X33000Y233320D01*
G37*
G36*
X80000Y249320D02*
X84680Y254000D01*
X91320Y254000D01*
X96000Y249320D01*
X96000Y242680D01*
X91320Y238000D01*
X84680Y238000D01*
X80000Y242680D01*
X80000Y249320D01*
G37*
X327000Y623000D02*
G54D16*
D03*
G36*
X128700Y684100D02*
X150700Y684100D01*
X150700Y662100D01*
X128700Y662100D01*
X128700Y684100D01*
G37*
X342800Y114100D02*
G54D14*
D03*
X368300Y215900D02*
G54D14*
D03*
X407800Y203100D02*
G54D14*
D03*
X384800Y246100D02*
G54D14*
D03*
X537800Y197100D02*
G54D14*
D03*
G36*
X571200Y604300D02*
X597200Y604300D01*
X597200Y578300D01*
X571200Y578300D01*
X571200Y604300D01*
G37*
X487000Y239000D02*
G54D14*
D03*
X443000Y287000D02*
G54D14*
D03*
X580000Y429000D02*
G54D14*
D03*
X606000Y475000D02*
G54D14*
D03*
X560000Y498000D02*
G54D14*
D03*
X441000Y425000D02*
G54D14*
D03*
X381000Y455000D02*
G54D14*
D03*
X415000Y426000D02*
G54D14*
D03*
X455000Y439000D02*
G54D14*
D03*
X501600Y406400D02*
G54D18*
D03*
X501600Y381000D02*
G54D18*
D03*
X501600Y330200D02*
G54D18*
D03*
X501600Y304800D02*
G54D18*
D03*
X552400Y355600D02*
G54D18*
D03*
G36*
X25100Y660700D02*
X51100Y660700D01*
X51100Y634700D01*
X25100Y634700D01*
X25100Y660700D01*
G37*
X38100Y622300D02*
G54D11*
D03*
X38100Y622300D02*
G54D12*
D03*
X38100Y596900D02*
G54D12*
D03*
X38100Y571500D02*
G54D12*
D03*
X38100Y533400D02*
G54D12*
D03*
X38100Y508000D02*
G54D12*
D03*
X38100Y482600D02*
G54D12*
D03*
X38100Y457200D02*
G54D12*
D03*
X38100Y431800D02*
G54D12*
D03*
X38100Y393700D02*
G54D12*
D03*
X38100Y368300D02*
G54D12*
D03*
X38100Y342900D02*
G54D12*
D03*
X38100Y317500D02*
G54D12*
D03*
G36*
X25100Y305100D02*
X51100Y305100D01*
X51100Y279100D01*
X25100Y279100D01*
X25100Y305100D01*
G37*
X469900Y546100D02*
G54D12*
D03*
X469900Y520700D02*
G54D12*
D03*
X469900Y495300D02*
G54D12*
D03*
X469900Y469900D02*
G54D12*
D03*
X221000Y214500D02*
G54D14*
D03*
X235100Y184900D02*
G54D14*
D03*
X223000Y197000D02*
G54D14*
D03*
X171600Y197300D02*
G54D14*
D03*
X163800Y214700D02*
G54D14*
D03*
X160200Y175300D02*
G54D14*
D03*
X235400Y142100D02*
G54D14*
D03*
G54D19*
X211400Y327200D02*
X211400Y316200D01*
G54D19*
X197100Y327200D02*
X197100Y316200D01*
M02*
