%FSLAX34Y34*%
%MOMM*%
%LNSILK_TOP*%
G71*
G01*
%ADD10C,0.150*%
%ADD11C,0.200*%
%ADD12C,0.222*%
%ADD13C,0.206*%
%ADD14C,0.159*%
%ADD15C,0.127*%
%ADD16C,0.089*%
%ADD17C,0.300*%
%ADD18C,0.111*%
%ADD19C,0.167*%
%ADD20C,0.000*%
%ADD21C,0.133*%
%ADD22C,0.100*%
%LPD*%
G54D10*
X457200Y558800D02*
X482600Y558800D01*
X482600Y457200D01*
X457200Y457200D01*
X457200Y558800D01*
G54D10*
X54000Y116000D02*
X54000Y138000D01*
X92000Y138000D01*
X92000Y116000D01*
X54000Y116000D01*
G54D10*
X54000Y166800D02*
X54000Y188800D01*
X92000Y188800D01*
X92000Y166800D01*
X54000Y166800D01*
G54D10*
X158300Y376800D02*
X180300Y376800D01*
X180300Y338800D01*
X158300Y338800D01*
X158300Y376800D01*
G54D10*
X225600Y373100D02*
X247600Y373100D01*
X247600Y335100D01*
X225600Y335100D01*
X225600Y373100D01*
G54D10*
X269900Y281100D02*
X269900Y303100D01*
X307900Y303100D01*
X307900Y281100D01*
X269900Y281100D01*
G54D10*
X269900Y255700D02*
X269900Y277700D01*
X307900Y277700D01*
X307900Y255700D01*
X269900Y255700D01*
G54D10*
X257200Y230300D02*
X257200Y252300D01*
X295200Y252300D01*
X295200Y230300D01*
X257200Y230300D01*
G54D10*
X239800Y171400D02*
X261800Y171400D01*
X261800Y133400D01*
X239800Y133400D01*
X239800Y171400D01*
G54D10*
X265200Y171400D02*
X287200Y171400D01*
X287200Y133400D01*
X265200Y133400D01*
X265200Y171400D01*
G54D10*
X346100Y128700D02*
X346100Y150700D01*
X384100Y150700D01*
X384100Y128700D01*
X346100Y128700D01*
G54D10*
X346100Y154100D02*
X346100Y176100D01*
X384100Y176100D01*
X384100Y154100D01*
X346100Y154100D01*
G54D10*
X417600Y158700D02*
X439600Y158700D01*
X439600Y120700D01*
X417600Y120700D01*
X417600Y158700D01*
G54D10*
X392200Y285700D02*
X414200Y285700D01*
X414200Y247700D01*
X392200Y247700D01*
X392200Y285700D01*
G54D10*
X366800Y641300D02*
X388800Y641300D01*
X388800Y603300D01*
X366800Y603300D01*
X366800Y641300D01*
G54D11*
X596900Y616700D02*
X596900Y623100D01*
X590600Y629400D01*
X577800Y629400D01*
X571500Y623100D01*
X571500Y610300D01*
X577800Y604000D01*
X590600Y604000D01*
X596900Y610300D01*
X596900Y616700D01*
G54D11*
X596900Y591300D02*
X596900Y597700D01*
X590600Y604000D01*
X577800Y604000D01*
X571500Y597700D01*
X571500Y584900D01*
X577800Y578600D01*
X590600Y578600D01*
X596900Y584900D01*
X596900Y591300D01*
G54D11*
X38100Y165100D02*
X44500Y165100D01*
X50800Y171400D01*
X50800Y184200D01*
X44500Y190500D01*
X31700Y190500D01*
X25400Y184200D01*
X25400Y171400D01*
X31700Y165100D01*
X38100Y165100D01*
G54D11*
X12700Y165100D02*
X19100Y165100D01*
X25400Y171400D01*
X25400Y184200D01*
X19100Y190500D01*
X6300Y190500D01*
X0Y184200D01*
X0Y171400D01*
X6300Y165100D01*
X12700Y165100D01*
G54D11*
X38100Y241300D02*
X44500Y241300D01*
X50800Y247600D01*
X50800Y260400D01*
X44500Y266700D01*
X31700Y266700D01*
X25400Y260400D01*
X25400Y247600D01*
X31700Y241300D01*
X38100Y241300D01*
G54D11*
X12700Y241300D02*
X19100Y241300D01*
X25400Y247600D01*
X25400Y260400D01*
X19100Y266700D01*
X6300Y266700D01*
X0Y260400D01*
X0Y247600D01*
X6300Y241300D01*
X12700Y241300D01*
G54D10*
X380900Y235600D02*
X357900Y235600D01*
X357900Y184500D01*
X380900Y184500D01*
X380900Y235600D01*
G54D10*
X375900Y235600D02*
X362900Y235600D01*
X362900Y230600D01*
X375900Y230600D01*
X375900Y235600D01*
G54D10*
X154800Y326100D02*
X174800Y326100D01*
X174800Y288100D01*
X154800Y288100D01*
X154800Y326100D01*
G54D12*
X180324Y675702D02*
X198102Y669036D01*
X180324Y662369D01*
G54D12*
X186991Y673036D02*
X186991Y665036D01*
G54D12*
X180324Y657480D02*
X190324Y657480D01*
G54D12*
X188102Y657480D02*
X190324Y654814D01*
X190324Y652147D01*
G54D12*
X180324Y639258D02*
X198102Y639258D01*
G54D12*
X187435Y639258D02*
X189657Y640592D01*
X190324Y643258D01*
X189657Y645925D01*
X187435Y647258D01*
X182991Y647258D01*
X180768Y645925D01*
X180324Y643258D01*
X180768Y640592D01*
X182991Y639258D01*
G54D12*
X190324Y626370D02*
X180324Y626370D01*
G54D12*
X182546Y626369D02*
X180768Y627703D01*
X180324Y630370D01*
X180768Y633036D01*
X182546Y634370D01*
X190324Y634370D01*
G54D12*
X180324Y621480D02*
X190324Y621480D01*
G54D12*
X193657Y621480D02*
X193657Y621480D01*
G54D12*
X180324Y616592D02*
X190324Y616592D01*
G54D12*
X188102Y616592D02*
X189657Y615258D01*
X190324Y612591D01*
X189657Y609925D01*
X188102Y608592D01*
X180324Y608592D01*
G54D12*
X182991Y595702D02*
X187435Y595702D01*
X189657Y597036D01*
X190324Y599702D01*
X189657Y602369D01*
X187435Y603702D01*
X182991Y603702D01*
X180768Y602369D01*
X180324Y599702D01*
X180768Y597036D01*
X182991Y595702D01*
G54D12*
X180324Y585657D02*
X198102Y585658D01*
X198102Y578991D01*
X196991Y576324D01*
X194768Y574991D01*
X192546Y574991D01*
X190324Y576324D01*
X189213Y578991D01*
X189213Y585658D01*
G54D12*
X180324Y570101D02*
X190324Y570102D01*
G54D12*
X188102Y570101D02*
X190324Y567435D01*
X190324Y564768D01*
G54D12*
X182991Y551880D02*
X187435Y551880D01*
X189657Y553213D01*
X190324Y555880D01*
X189657Y558546D01*
X187435Y559879D01*
X182991Y559879D01*
X180768Y558546D01*
X180324Y555880D01*
X180768Y553213D01*
X182991Y551880D01*
G54D12*
X180324Y541834D02*
X198102Y541834D01*
X186991Y535168D01*
X198102Y528501D01*
X180324Y528501D01*
G54D12*
X180324Y523612D02*
X190324Y523612D01*
G54D12*
X193657Y523612D02*
X193657Y523612D01*
G54D12*
X180324Y518724D02*
X190324Y518724D01*
G54D12*
X188102Y518724D02*
X189657Y517390D01*
X190324Y514724D01*
X189657Y512057D01*
X188102Y510724D01*
X180324Y510724D01*
G54D12*
X180324Y505834D02*
X190324Y505834D01*
G54D12*
X193657Y505834D02*
X193657Y505834D01*
G54D10*
X367800Y552400D02*
X387800Y552400D01*
X387800Y514400D01*
X367800Y514400D01*
X367800Y552400D01*
G54D10*
X393200Y552400D02*
X413200Y552400D01*
X413200Y514400D01*
X393200Y514400D01*
X393200Y552400D01*
G54D13*
X148295Y244016D02*
X146851Y243149D01*
X146128Y241416D01*
X146128Y239683D01*
X146851Y237949D01*
X148295Y237083D01*
X149739Y237083D01*
X151184Y237949D01*
X151906Y239683D01*
X151906Y241416D01*
X152628Y243149D01*
X154073Y244016D01*
X155517Y244016D01*
X156962Y243149D01*
X157684Y241416D01*
X157684Y239683D01*
X156962Y237950D01*
X155517Y237083D01*
G54D13*
X146128Y233039D02*
X152628Y233039D01*
G54D13*
X154795Y233039D02*
X154795Y233039D01*
G54D13*
X146128Y223795D02*
X157684Y223795D01*
X150462Y228995D01*
X149017Y228995D01*
X149017Y222062D01*
G54D13*
X157684Y218018D02*
X157684Y211085D01*
X156239Y211951D01*
X154073Y213685D01*
X151184Y215418D01*
X149017Y216285D01*
X146128Y216285D01*
G54D13*
X155517Y207041D02*
X156962Y206174D01*
X157684Y204441D01*
X157684Y202708D01*
X156962Y200974D01*
X155517Y200108D01*
X154073Y200108D01*
X152628Y200974D01*
X151906Y202708D01*
X151184Y200974D01*
X149739Y200108D01*
X148295Y200108D01*
X146851Y200974D01*
X146128Y202708D01*
X146128Y204441D01*
X146851Y206174D01*
X148295Y207041D01*
G54D13*
X157684Y189131D02*
X157684Y196064D01*
X152628Y196064D01*
X152628Y195197D01*
X153351Y193464D01*
X153351Y191731D01*
X152628Y189997D01*
X151184Y189131D01*
X148295Y189131D01*
X146851Y189997D01*
X146128Y191731D01*
X146128Y193464D01*
X146851Y195197D01*
X148295Y196064D01*
G54D14*
X54437Y631410D02*
X54437Y636077D01*
X63326Y636077D01*
X63326Y631410D01*
G54D14*
X58881Y636077D02*
X58881Y631410D01*
G54D14*
X54437Y628299D02*
X59437Y628299D01*
G54D14*
X58326Y628299D02*
X59103Y627632D01*
X59437Y626299D01*
X59103Y624965D01*
X58326Y624299D01*
X54437Y624299D01*
G54D14*
X59103Y617854D02*
X59437Y619188D01*
X59103Y620521D01*
X57992Y621188D01*
X55770Y621188D01*
X54659Y620521D01*
X54437Y619188D01*
X54659Y617854D01*
G54D14*
X55770Y610744D02*
X57992Y610744D01*
X59103Y611410D01*
X59437Y612744D01*
X59103Y614077D01*
X57992Y614744D01*
X55770Y614744D01*
X54659Y614077D01*
X54437Y612744D01*
X54659Y611410D01*
X55770Y610744D01*
G54D14*
X54437Y603633D02*
X63326Y603633D01*
G54D14*
X57992Y603633D02*
X59103Y604300D01*
X59437Y605633D01*
X59103Y606966D01*
X57992Y607633D01*
X55770Y607633D01*
X54659Y606966D01*
X54437Y605633D01*
X54659Y604300D01*
X55770Y603633D01*
G54D14*
X54992Y596522D02*
X54437Y597588D01*
X54437Y598922D01*
X54992Y600255D01*
X56103Y600522D01*
X57992Y600522D01*
X59103Y599855D01*
X59437Y598522D01*
X59103Y597188D01*
X58326Y596522D01*
X57215Y596522D01*
X57215Y600522D01*
G54D14*
X54437Y593411D02*
X59437Y593411D01*
G54D14*
X58326Y593411D02*
X59437Y592078D01*
X59437Y590744D01*
G54D15*
X99966Y572278D02*
X99966Y579389D01*
X102633Y579389D01*
X103700Y578945D01*
X104233Y578056D01*
X104233Y577167D01*
X103700Y576278D01*
X102633Y575834D01*
X103700Y575389D01*
X104233Y574500D01*
X104233Y573611D01*
X103700Y572722D01*
X102633Y572278D01*
X99966Y572278D01*
G54D15*
X99966Y575834D02*
X102633Y575834D01*
G54D15*
X100234Y546878D02*
X102900Y553989D01*
X105567Y546878D01*
G54D15*
X101300Y549545D02*
X104500Y549545D01*
G54D15*
X94500Y522478D02*
X94500Y529589D01*
X97166Y525145D01*
X99833Y529589D01*
X99833Y522478D01*
G54D15*
X105522Y523545D02*
X105522Y525322D01*
X104988Y526211D01*
X103922Y526478D01*
X102855Y526211D01*
X102322Y525322D01*
X102322Y523545D01*
X102855Y522656D01*
X103922Y522478D01*
X104988Y522656D01*
X105522Y523545D01*
G54D15*
X111210Y522478D02*
X111210Y529589D01*
G54D15*
X111210Y525322D02*
X110677Y526211D01*
X109610Y526478D01*
X108544Y526211D01*
X108010Y525322D01*
X108010Y523545D01*
X108544Y522656D01*
X109610Y522478D01*
X110677Y522656D01*
X111210Y523545D01*
G54D15*
X116900Y522922D02*
X116046Y522478D01*
X114980Y522478D01*
X113913Y522922D01*
X113700Y523811D01*
X113700Y525322D01*
X114233Y526211D01*
X115300Y526478D01*
X116366Y526211D01*
X116900Y525589D01*
X116900Y524700D01*
X113700Y524700D01*
G54D15*
X93610Y497078D02*
X93610Y504189D01*
X96277Y504189D01*
X97344Y503745D01*
X97877Y502856D01*
X97877Y501967D01*
X97344Y501078D01*
X96277Y500634D01*
X97344Y500189D01*
X97877Y499300D01*
X97877Y498411D01*
X97344Y497522D01*
X96277Y497078D01*
X93610Y497078D01*
G54D15*
X93610Y500634D02*
X96277Y500634D01*
G54D15*
X100366Y497078D02*
X104633Y504189D01*
G54D15*
X107122Y504189D02*
X107122Y497078D01*
X109789Y501522D01*
X112456Y497078D01*
X112456Y504189D01*
G54D15*
X93955Y478789D02*
X96622Y471678D01*
X99288Y478789D01*
G54D15*
X104977Y472745D02*
X104977Y474522D01*
X104444Y475411D01*
X103377Y475678D01*
X102310Y475411D01*
X101777Y474522D01*
X101777Y472745D01*
X102310Y471856D01*
X103377Y471678D01*
X104444Y471856D01*
X104977Y472745D01*
G54D15*
X107466Y471678D02*
X107466Y478789D01*
G54D15*
X109955Y474789D02*
X114222Y474789D01*
G54D15*
X112088Y476567D02*
X112088Y473011D01*
G54D15*
X93955Y453389D02*
X96622Y446278D01*
X99288Y453389D01*
G54D15*
X104977Y447345D02*
X104977Y449122D01*
X104444Y450011D01*
X103377Y450278D01*
X102310Y450011D01*
X101777Y449122D01*
X101777Y447345D01*
X102310Y446456D01*
X103377Y446278D01*
X104444Y446456D01*
X104977Y447345D01*
G54D15*
X107466Y446278D02*
X107466Y453389D01*
G54D15*
X109955Y449389D02*
X114222Y449389D01*
G54D15*
X95900Y420878D02*
X95900Y427989D01*
X98567Y427989D01*
X99633Y427545D01*
X100167Y426656D01*
X100167Y425767D01*
X99633Y424878D01*
X98567Y424434D01*
X99633Y423989D01*
X100167Y423100D01*
X100167Y422211D01*
X99633Y421322D01*
X98567Y420878D01*
X95900Y420878D01*
G54D15*
X95900Y424434D02*
X98567Y424434D01*
G54D15*
X102656Y424434D02*
X103723Y424878D01*
X105003Y424878D01*
X105856Y423989D01*
X105856Y420878D01*
G54D15*
X105856Y422211D02*
X105323Y423100D01*
X104256Y423278D01*
X103189Y423100D01*
X102656Y422211D01*
X102869Y421322D01*
X103723Y420878D01*
X104256Y420878D01*
X104469Y420878D01*
X105323Y421322D01*
X105856Y422211D01*
G54D15*
X108345Y420878D02*
X108345Y424878D01*
G54D15*
X108345Y423989D02*
X108878Y424611D01*
X109945Y424878D01*
X111012Y424611D01*
X111545Y423989D01*
X111545Y420878D01*
G54D15*
X117234Y420878D02*
X117234Y427989D01*
G54D15*
X117234Y423722D02*
X116701Y424611D01*
X115634Y424878D01*
X114567Y424611D01*
X114034Y423722D01*
X114034Y421945D01*
X114567Y421056D01*
X115634Y420878D01*
X116701Y421056D01*
X117234Y421945D01*
G54D15*
X119723Y423989D02*
X123990Y423989D01*
G54D15*
X121856Y425767D02*
X121856Y422211D01*
G54D15*
X95900Y395478D02*
X95900Y402589D01*
X98567Y402589D01*
X99633Y402145D01*
X100167Y401256D01*
X100167Y400367D01*
X99633Y399478D01*
X98567Y399034D01*
X99633Y398589D01*
X100167Y397700D01*
X100167Y396811D01*
X99633Y395922D01*
X98567Y395478D01*
X95900Y395478D01*
G54D15*
X95900Y399034D02*
X98567Y399034D01*
G54D15*
X102656Y399034D02*
X103723Y399478D01*
X105003Y399478D01*
X105856Y398589D01*
X105856Y395478D01*
G54D15*
X105856Y396811D02*
X105323Y397700D01*
X104256Y397878D01*
X103189Y397700D01*
X102656Y396811D01*
X102869Y395922D01*
X103723Y395478D01*
X104256Y395478D01*
X104469Y395478D01*
X105323Y395922D01*
X105856Y396811D01*
G54D15*
X108345Y395478D02*
X108345Y399478D01*
G54D15*
X108345Y398589D02*
X108878Y399211D01*
X109945Y399478D01*
X111012Y399211D01*
X111545Y398589D01*
X111545Y395478D01*
G54D15*
X117234Y395478D02*
X117234Y402589D01*
G54D15*
X117234Y398322D02*
X116701Y399211D01*
X115634Y399478D01*
X114567Y399211D01*
X114034Y398322D01*
X114034Y396545D01*
X114567Y395656D01*
X115634Y395478D01*
X116701Y395656D01*
X117234Y396545D01*
G54D15*
X119723Y398589D02*
X123990Y398589D01*
G54D15*
X93210Y370078D02*
X93210Y377189D01*
X95877Y377189D01*
X96944Y376745D01*
X97477Y375856D01*
X97477Y374967D01*
X96944Y374078D01*
X95877Y373634D01*
X96944Y373189D01*
X97477Y372300D01*
X97477Y371411D01*
X96944Y370522D01*
X95877Y370078D01*
X93210Y370078D01*
G54D15*
X93210Y373634D02*
X95877Y373634D01*
G54D15*
X99966Y370078D02*
X99966Y377189D01*
X103700Y377189D01*
G54D15*
X99966Y373634D02*
X103700Y373634D01*
G54D15*
X110455Y375856D02*
X110455Y371411D01*
X109922Y370522D01*
X108855Y370078D01*
X107788Y370078D01*
X106722Y370522D01*
X106188Y371411D01*
X106188Y375856D01*
X106722Y376745D01*
X107788Y377189D01*
X108855Y377189D01*
X109922Y376745D01*
X110455Y375856D01*
G54D15*
X92899Y315611D02*
X93432Y314722D01*
X94499Y314278D01*
X95566Y314278D01*
X96632Y314722D01*
X97166Y315611D01*
X97166Y316500D01*
X96632Y317389D01*
X95566Y317834D01*
X94499Y317834D01*
X93432Y318278D01*
X92899Y319167D01*
X92899Y320056D01*
X93432Y320945D01*
X94499Y321389D01*
X95566Y321389D01*
X96632Y320945D01*
X97166Y320056D01*
G54D15*
X101788Y314278D02*
X101788Y321389D01*
G54D15*
X99655Y321389D02*
X103922Y321389D01*
G54D15*
X110144Y314278D02*
X106411Y314278D01*
X106411Y321389D01*
X110144Y321389D01*
G54D15*
X106411Y317834D02*
X110144Y317834D01*
G54D15*
X112633Y314278D02*
X112633Y321389D01*
X115300Y321389D01*
X116366Y320945D01*
X116900Y320056D01*
X116900Y319167D01*
X116366Y318278D01*
X115300Y317834D01*
X112633Y317834D01*
G54D15*
X90901Y341878D02*
X93568Y348989D01*
X96234Y341878D01*
G54D15*
X91968Y344545D02*
X95168Y344545D01*
G54D15*
X100856Y345434D02*
X102990Y345434D01*
X102990Y343211D01*
X102456Y342322D01*
X101390Y341878D01*
X100323Y341878D01*
X99256Y342322D01*
X98723Y343211D01*
X98723Y347656D01*
X99256Y348545D01*
X100323Y348989D01*
X101390Y348989D01*
X102456Y348545D01*
X102990Y347656D01*
G54D15*
X109746Y343211D02*
X109212Y342322D01*
X108146Y341878D01*
X107079Y341878D01*
X106012Y342322D01*
X105479Y343211D01*
X105479Y347656D01*
X106012Y348545D01*
X107079Y348989D01*
X108146Y348989D01*
X109212Y348545D01*
X109746Y347656D01*
G54D10*
X25400Y660400D02*
X50800Y660400D01*
X50800Y558800D01*
X25400Y558800D01*
X25400Y660400D01*
G54D14*
X234300Y582567D02*
X234967Y581456D01*
X236300Y580900D01*
X237633Y580900D01*
X238967Y581456D01*
X239633Y582567D01*
X239633Y583678D01*
X238967Y584789D01*
X237633Y585344D01*
X236300Y585344D01*
X234967Y585900D01*
X234300Y587011D01*
X234300Y588122D01*
X234967Y589233D01*
X236300Y589789D01*
X237633Y589789D01*
X238967Y589233D01*
X239633Y588122D01*
G54D14*
X248077Y582567D02*
X247411Y581456D01*
X246077Y580900D01*
X244744Y580900D01*
X243411Y581456D01*
X242744Y582567D01*
X242744Y588122D01*
X243411Y589233D01*
X244744Y589789D01*
X246077Y589789D01*
X247411Y589233D01*
X248077Y588122D01*
G54D14*
X251188Y589789D02*
X251188Y580900D01*
X255855Y580900D01*
G54D14*
X233300Y556067D02*
X233967Y554956D01*
X235300Y554400D01*
X236633Y554400D01*
X237967Y554956D01*
X238633Y556067D01*
X238633Y557178D01*
X237967Y558289D01*
X236633Y558844D01*
X235300Y558844D01*
X233967Y559400D01*
X233300Y560511D01*
X233300Y561622D01*
X233967Y562733D01*
X235300Y563289D01*
X236633Y563289D01*
X237967Y562733D01*
X238633Y561622D01*
G54D14*
X241744Y554400D02*
X241744Y563289D01*
X245077Y563289D01*
X246411Y562733D01*
X247077Y561622D01*
X247077Y556067D01*
X246411Y554956D01*
X245077Y554400D01*
X241744Y554400D01*
G54D14*
X250188Y554400D02*
X253521Y563289D01*
X256855Y554400D01*
G54D14*
X251521Y557733D02*
X255521Y557733D01*
G54D14*
X251000Y438500D02*
X251000Y447389D01*
X254333Y441833D01*
X257667Y447389D01*
X257667Y438500D01*
G54D14*
X266111Y445722D02*
X266111Y440167D01*
X265445Y439056D01*
X264111Y438500D01*
X262778Y438500D01*
X261445Y439056D01*
X260778Y440167D01*
X260778Y445722D01*
X261445Y446833D01*
X262778Y447389D01*
X264111Y447389D01*
X265445Y446833D01*
X266111Y445722D01*
G54D14*
X269222Y440167D02*
X269889Y439056D01*
X271222Y438500D01*
X272555Y438500D01*
X273889Y439056D01*
X274555Y440167D01*
X274555Y441278D01*
X273889Y442389D01*
X272555Y442944D01*
X271222Y442944D01*
X269889Y443500D01*
X269222Y444611D01*
X269222Y445722D01*
X269889Y446833D01*
X271222Y447389D01*
X272555Y447389D01*
X273889Y446833D01*
X274555Y445722D01*
G54D14*
X277666Y438500D02*
X277666Y447389D01*
G54D14*
X256667Y652144D02*
X259333Y652144D01*
X259333Y649367D01*
X258667Y648256D01*
X257333Y647700D01*
X256000Y647700D01*
X254667Y648256D01*
X254000Y649367D01*
X254000Y654922D01*
X254667Y656033D01*
X256000Y656589D01*
X257333Y656589D01*
X258667Y656033D01*
X259333Y654922D01*
G54D14*
X262444Y647700D02*
X262444Y656589D01*
X267777Y647700D01*
X267777Y656589D01*
G54D14*
X270888Y647700D02*
X270888Y656589D01*
X274221Y656589D01*
X275555Y656033D01*
X276221Y654922D01*
X276221Y649367D01*
X275555Y648256D01*
X274221Y647700D01*
X270888Y647700D01*
G54D14*
X252800Y607122D02*
X253467Y608233D01*
X254800Y608789D01*
X256133Y608789D01*
X257467Y608233D01*
X258133Y607122D01*
X258133Y606011D01*
X257467Y604900D01*
X256133Y604344D01*
X257467Y603789D01*
X258133Y602678D01*
X258133Y601567D01*
X257467Y600456D01*
X256133Y599900D01*
X254800Y599900D01*
X253467Y600456D01*
X252800Y601567D01*
G54D14*
X262577Y599900D02*
X262577Y598789D01*
X261911Y597678D01*
X261244Y597678D01*
G54D14*
X265688Y607122D02*
X266355Y608233D01*
X267688Y608789D01*
X269021Y608789D01*
X270355Y608233D01*
X271021Y607122D01*
X271021Y606011D01*
X270355Y604900D01*
X269021Y604344D01*
X270355Y603789D01*
X271021Y602678D01*
X271021Y601567D01*
X270355Y600456D01*
X269021Y599900D01*
X267688Y599900D01*
X266355Y600456D01*
X265688Y601567D01*
G54D14*
X274132Y608789D02*
X277465Y599900D01*
X280799Y608789D01*
G54D14*
X585111Y637667D02*
X594000Y641000D01*
X585111Y644333D01*
G54D14*
X590111Y647445D02*
X590111Y652778D01*
G54D14*
X587889Y650111D02*
X592333Y650111D01*
G54D14*
X590489Y551712D02*
X590489Y554378D01*
X593267Y554378D01*
X594378Y553712D01*
X594934Y552378D01*
X594934Y551045D01*
X594378Y549712D01*
X593267Y549045D01*
X587711Y549045D01*
X586600Y549712D01*
X586045Y551045D01*
X586045Y552378D01*
X586600Y553712D01*
X587711Y554378D01*
G54D14*
X594934Y557489D02*
X586045Y557489D01*
X594934Y562822D01*
X586045Y562822D01*
G54D14*
X594934Y565933D02*
X586045Y565933D01*
X586045Y569266D01*
X586600Y570600D01*
X587711Y571266D01*
X593267Y571266D01*
X594378Y570600D01*
X594934Y569266D01*
X594934Y565933D01*
G54D14*
X491467Y546244D02*
X494133Y546244D01*
X494133Y543467D01*
X493467Y542356D01*
X492133Y541800D01*
X490800Y541800D01*
X489467Y542356D01*
X488800Y543467D01*
X488800Y549022D01*
X489467Y550133D01*
X490800Y550689D01*
X492133Y550689D01*
X493467Y550133D01*
X494133Y549022D01*
G54D14*
X497244Y541800D02*
X497244Y550689D01*
X502577Y541800D01*
X502577Y550689D01*
G54D14*
X505688Y541800D02*
X505688Y550689D01*
X509021Y550689D01*
X510355Y550133D01*
X511021Y549022D01*
X511021Y543467D01*
X510355Y542356D01*
X509021Y541800D01*
X505688Y541800D01*
G54D14*
X485800Y526289D02*
X491133Y526289D01*
G54D14*
X488467Y528511D02*
X488467Y524067D01*
G54D14*
X494244Y529622D02*
X494911Y530733D01*
X496244Y531289D01*
X497577Y531289D01*
X498911Y530733D01*
X499577Y529622D01*
X499577Y528511D01*
X498911Y527400D01*
X497577Y526844D01*
X498911Y526289D01*
X499577Y525178D01*
X499577Y524067D01*
X498911Y522956D01*
X497577Y522400D01*
X496244Y522400D01*
X494911Y522956D01*
X494244Y524067D01*
G54D14*
X502688Y531289D02*
X506021Y522400D01*
X509355Y531289D01*
G54D14*
X488800Y493967D02*
X489467Y492856D01*
X490800Y492300D01*
X492133Y492300D01*
X493467Y492856D01*
X494133Y493967D01*
X494133Y495078D01*
X493467Y496189D01*
X492133Y496744D01*
X490800Y496744D01*
X489467Y497300D01*
X488800Y498411D01*
X488800Y499522D01*
X489467Y500633D01*
X490800Y501189D01*
X492133Y501189D01*
X493467Y500633D01*
X494133Y499522D01*
G54D14*
X502577Y493967D02*
X501911Y492856D01*
X500577Y492300D01*
X499244Y492300D01*
X497911Y492856D01*
X497244Y493967D01*
X497244Y499522D01*
X497911Y500633D01*
X499244Y501189D01*
X500577Y501189D01*
X501911Y500633D01*
X502577Y499522D01*
G54D14*
X505688Y501189D02*
X505688Y492300D01*
X510355Y492300D01*
G54D14*
X486800Y468567D02*
X487467Y467456D01*
X488800Y466900D01*
X490133Y466900D01*
X491467Y467456D01*
X492133Y468567D01*
X492133Y469678D01*
X491467Y470789D01*
X490133Y471344D01*
X488800Y471344D01*
X487467Y471900D01*
X486800Y473011D01*
X486800Y474122D01*
X487467Y475233D01*
X488800Y475789D01*
X490133Y475789D01*
X491467Y475233D01*
X492133Y474122D01*
G54D14*
X495244Y466900D02*
X495244Y475789D01*
X498577Y475789D01*
X499911Y475233D01*
X500577Y474122D01*
X500577Y468567D01*
X499911Y467456D01*
X498577Y466900D01*
X495244Y466900D01*
G54D14*
X503688Y466900D02*
X507021Y475789D01*
X510355Y466900D01*
G54D14*
X505021Y470233D02*
X509021Y470233D01*
G54D14*
X561262Y196497D02*
X562373Y197163D01*
X562928Y198497D01*
X562928Y199830D01*
X562373Y201163D01*
X561262Y201830D01*
X560151Y201830D01*
X559040Y201163D01*
X558484Y199830D01*
X558484Y198497D01*
X557929Y197163D01*
X556817Y196497D01*
X555706Y196497D01*
X554595Y197163D01*
X554040Y198497D01*
X554040Y199830D01*
X554595Y201163D01*
X555706Y201830D01*
G54D14*
X562928Y204941D02*
X554040Y204941D01*
X554040Y208274D01*
X554595Y209607D01*
X555706Y210274D01*
X556817Y210274D01*
X557929Y209607D01*
X558484Y208274D01*
X558484Y204941D01*
G54D14*
X562928Y213385D02*
X554040Y213385D01*
G54D14*
X560151Y213385D02*
X554040Y218718D01*
G54D14*
X558484Y215385D02*
X562928Y218718D01*
G54D14*
X445078Y472233D02*
X450633Y472233D01*
X451744Y471567D01*
X452300Y470233D01*
X452300Y468900D01*
X451744Y467567D01*
X450633Y466900D01*
X445078Y466900D01*
X443967Y467567D01*
X443411Y468900D01*
X443411Y470233D01*
X443967Y471567D01*
X445078Y472233D01*
G54D14*
X443411Y475344D02*
X452300Y475344D01*
X452300Y480011D01*
G54D14*
X452300Y487789D02*
X452300Y483122D01*
X443411Y483122D01*
X443411Y487789D01*
G54D14*
X447856Y483122D02*
X447856Y487789D01*
G54D14*
X452300Y490900D02*
X443411Y490900D01*
X443411Y494233D01*
X443967Y495567D01*
X445078Y496233D01*
X450633Y496233D01*
X451744Y495567D01*
X452300Y494233D01*
X452300Y490900D01*
G54D14*
X452300Y502588D02*
X443411Y502588D01*
X443411Y505921D01*
X443967Y507255D01*
X445078Y507921D01*
X450633Y507921D01*
X451744Y507255D01*
X452300Y505921D01*
X452300Y502588D01*
G54D14*
X452300Y511032D02*
X447300Y511032D01*
G54D14*
X445633Y511032D02*
X445633Y511032D01*
G54D14*
X451744Y514143D02*
X452300Y515476D01*
X452300Y516810D01*
X451744Y518143D01*
X450633Y518143D01*
X450078Y517476D01*
X449522Y514810D01*
X448967Y514143D01*
X447856Y514143D01*
X447300Y515476D01*
X447300Y516810D01*
X447856Y518143D01*
G54D14*
X447300Y521254D02*
X454522Y521254D01*
G54D14*
X450633Y521254D02*
X452078Y521921D01*
X452300Y523254D01*
X452078Y524587D01*
X450967Y525254D01*
X448744Y525254D01*
X447633Y524587D01*
X447300Y523254D01*
X447633Y521921D01*
X448967Y521254D01*
G54D14*
X452300Y528365D02*
X443411Y528365D01*
G54D14*
X447856Y531476D02*
X447300Y532809D01*
X447300Y534409D01*
X448411Y535476D01*
X452300Y535476D01*
G54D14*
X450633Y535476D02*
X449522Y534809D01*
X449300Y533476D01*
X449522Y532143D01*
X450633Y531476D01*
X451744Y531743D01*
X452300Y532809D01*
X452300Y533476D01*
X452300Y533743D01*
X451744Y534809D01*
X450633Y535476D01*
G54D14*
X447300Y538587D02*
X452300Y541254D01*
X447300Y543920D01*
G54D14*
X452300Y541254D02*
X453967Y540587D01*
X454522Y539920D01*
X454522Y539254D01*
G54D14*
X190500Y377189D02*
X197167Y368300D01*
G54D14*
X190500Y368300D02*
X197167Y377189D01*
G54D14*
X202945Y368300D02*
X202945Y377189D01*
G54D14*
X200278Y377189D02*
X205611Y377189D01*
G54D14*
X208722Y368300D02*
X212055Y377189D01*
X215389Y368300D01*
G54D14*
X210055Y371633D02*
X214055Y371633D01*
G54D14*
X218500Y377189D02*
X218500Y368300D01*
X223167Y368300D01*
G54D15*
X390767Y131000D02*
X386500Y131000D01*
X386500Y131444D01*
X387033Y132333D01*
X390233Y135000D01*
X390767Y135889D01*
X390767Y136778D01*
X390233Y137667D01*
X389167Y138111D01*
X388100Y138111D01*
X387033Y137667D01*
X386500Y136778D01*
G54D15*
X397523Y131000D02*
X393256Y131000D01*
X393256Y131444D01*
X393789Y132333D01*
X396989Y135000D01*
X397523Y135889D01*
X397523Y136778D01*
X396989Y137667D01*
X395923Y138111D01*
X394856Y138111D01*
X393789Y137667D01*
X393256Y136778D01*
G54D15*
X404279Y136778D02*
X404279Y132333D01*
X403745Y131444D01*
X402679Y131000D01*
X401612Y131000D01*
X400545Y131444D01*
X400012Y132333D01*
X400012Y136778D01*
X400545Y137667D01*
X401612Y138111D01*
X402679Y138111D01*
X403745Y137667D01*
X404279Y136778D01*
G54D15*
X406768Y131000D02*
X406768Y138111D01*
X409435Y138111D01*
X410501Y137667D01*
X411035Y136778D01*
X411035Y135889D01*
X410501Y135000D01*
X409435Y134556D01*
X406768Y134556D01*
G54D15*
X385500Y174544D02*
X388167Y177211D01*
X388167Y170100D01*
G54D15*
X394923Y175878D02*
X394923Y171433D01*
X394389Y170544D01*
X393323Y170100D01*
X392256Y170100D01*
X391189Y170544D01*
X390656Y171433D01*
X390656Y175878D01*
X391189Y176767D01*
X392256Y177211D01*
X393323Y177211D01*
X394389Y176767D01*
X394923Y175878D01*
G54D15*
X401679Y175878D02*
X401679Y171433D01*
X401145Y170544D01*
X400079Y170100D01*
X399012Y170100D01*
X397945Y170544D01*
X397412Y171433D01*
X397412Y175878D01*
X397945Y176767D01*
X399012Y177211D01*
X400079Y177211D01*
X401145Y176767D01*
X401679Y175878D01*
G54D15*
X404168Y170100D02*
X404168Y177211D01*
G54D15*
X404168Y172322D02*
X408435Y177211D01*
G54D15*
X405768Y173656D02*
X408435Y170100D01*
G54D10*
X396900Y344600D02*
X396900Y366600D01*
X434900Y366600D01*
X434900Y344600D01*
X396900Y344600D01*
G54D10*
X396900Y319200D02*
X396900Y341200D01*
X434900Y341200D01*
X434900Y319200D01*
X396900Y319200D01*
G54D16*
X409000Y372044D02*
X411667Y374711D01*
X411667Y367600D01*
G54D16*
X413623Y367600D02*
X413623Y374711D01*
G54D16*
X413623Y369822D02*
X417890Y374711D01*
G54D16*
X415223Y371156D02*
X417890Y367600D01*
G54D16*
X407000Y313944D02*
X409667Y316611D01*
X409667Y309500D01*
G54D16*
X411623Y309500D02*
X411623Y316611D01*
G54D16*
X411623Y311722D02*
X415890Y316611D01*
G54D16*
X413223Y313056D02*
X415890Y309500D01*
G54D16*
X279521Y184786D02*
X282188Y182120D01*
X275077Y182120D01*
G54D16*
X279077Y176963D02*
X275077Y176963D01*
G54D16*
X275965Y176963D02*
X275254Y177497D01*
X275077Y178563D01*
X275254Y179630D01*
X275965Y180163D01*
X279077Y180163D01*
G54D16*
X444672Y153839D02*
X451783Y153839D01*
X447339Y157039D01*
X446450Y157039D01*
X446450Y152772D01*
G54D16*
X444672Y150816D02*
X451783Y150816D01*
G54D16*
X446895Y150816D02*
X451783Y146549D01*
G54D16*
X448228Y149216D02*
X444672Y146549D01*
G54D16*
X451783Y144593D02*
X451783Y140326D01*
X450895Y140859D01*
X449561Y141926D01*
X447783Y142993D01*
X446450Y143526D01*
X444672Y143526D01*
G54D16*
X393700Y614044D02*
X396367Y616711D01*
X396367Y609600D01*
G54D16*
X401523Y613600D02*
X401523Y609600D01*
G54D16*
X401523Y610489D02*
X400990Y609778D01*
X399923Y609600D01*
X398856Y609778D01*
X398323Y610489D01*
X398323Y613600D01*
G54D16*
X373000Y502100D02*
X373000Y509211D01*
X369800Y504767D01*
X369800Y503878D01*
X374067Y503878D01*
G54D16*
X376023Y502100D02*
X376023Y509211D01*
G54D16*
X376023Y504322D02*
X380290Y509211D01*
G54D16*
X377623Y505656D02*
X380290Y502100D01*
G54D16*
X382246Y509211D02*
X386513Y509211D01*
X385979Y508322D01*
X384913Y506989D01*
X383846Y505211D01*
X383313Y503878D01*
X383313Y502100D01*
G54D16*
X399900Y502800D02*
X399900Y509911D01*
X396700Y505467D01*
X396700Y504578D01*
X400967Y504578D01*
G54D16*
X402923Y502800D02*
X402923Y509911D01*
G54D16*
X402923Y505022D02*
X407190Y509911D01*
G54D16*
X404523Y506356D02*
X407190Y502800D01*
G54D16*
X409146Y509911D02*
X413413Y509911D01*
X412879Y509022D01*
X411813Y507689D01*
X410746Y505911D01*
X410213Y504578D01*
X410213Y502800D01*
G54D16*
X308000Y304800D02*
X308000Y311911D01*
X304800Y307467D01*
X304800Y306578D01*
X309067Y306578D01*
G54D16*
X314223Y308800D02*
X314223Y304800D01*
G54D16*
X314223Y305689D02*
X313690Y304978D01*
X312623Y304800D01*
X311556Y304978D01*
X311023Y305689D01*
X311023Y308800D01*
G54D16*
X316179Y311911D02*
X320446Y311911D01*
X319912Y311022D01*
X318846Y309689D01*
X317779Y307911D01*
X317246Y306578D01*
X317246Y304800D01*
G54D16*
X320700Y254000D02*
X320700Y261111D01*
X317500Y256667D01*
X317500Y255778D01*
X321767Y255778D01*
G54D16*
X326923Y258000D02*
X326923Y254000D01*
G54D16*
X326923Y254889D02*
X326390Y254178D01*
X325323Y254000D01*
X324256Y254178D01*
X323723Y254889D01*
X323723Y258000D01*
G54D16*
X328879Y261111D02*
X333146Y261111D01*
X332612Y260222D01*
X331546Y258889D01*
X330479Y257111D01*
X329946Y255778D01*
X329946Y254000D01*
G54D16*
X260967Y219900D02*
X256700Y219900D01*
X256700Y220344D01*
X257233Y221233D01*
X260433Y223900D01*
X260967Y224789D01*
X260967Y225678D01*
X260433Y226567D01*
X259367Y227011D01*
X258300Y227011D01*
X257233Y226567D01*
X256700Y225678D01*
G54D16*
X267190Y219900D02*
X262923Y219900D01*
X262923Y220344D01*
X263456Y221233D01*
X266656Y223900D01*
X267190Y224789D01*
X267190Y225678D01*
X266656Y226567D01*
X265590Y227011D01*
X264523Y227011D01*
X263456Y226567D01*
X262923Y225678D01*
G54D16*
X269146Y219900D02*
X269146Y223900D01*
G54D16*
X269146Y223011D02*
X269679Y223633D01*
X270746Y223900D01*
X271813Y223633D01*
X272346Y223011D01*
X272346Y219900D01*
G54D16*
X275369Y219900D02*
X275369Y226567D01*
X275902Y227011D01*
X276435Y226744D01*
G54D16*
X274302Y223900D02*
X276435Y223900D01*
G54D16*
X248546Y189955D02*
X244101Y189955D01*
X243212Y190488D01*
X242768Y191555D01*
X242768Y192622D01*
X243212Y193688D01*
X244101Y194222D01*
X248546Y194222D01*
X249435Y193688D01*
X249879Y192622D01*
X249879Y191555D01*
X249435Y190488D01*
X248546Y189955D01*
G54D16*
X242768Y187999D02*
X242768Y187999D01*
G54D16*
X247212Y186043D02*
X249879Y183376D01*
X242768Y183376D01*
G54D16*
X246768Y178220D02*
X242768Y178220D01*
G54D16*
X243657Y178220D02*
X242946Y178753D01*
X242768Y179820D01*
X242946Y180886D01*
X243657Y181420D01*
X246768Y181420D01*
G54D16*
X94100Y176244D02*
X96767Y178911D01*
X96767Y171800D01*
G54D16*
X101390Y175356D02*
X100323Y175356D01*
X99256Y175800D01*
X98723Y176689D01*
X98723Y177578D01*
X99256Y178467D01*
X100323Y178911D01*
X101390Y178911D01*
X102456Y178467D01*
X102990Y177578D01*
X102990Y176689D01*
X102456Y175800D01*
X101390Y175356D01*
X102456Y174911D01*
X102990Y174022D01*
X102990Y173133D01*
X102456Y172244D01*
X101390Y171800D01*
X100323Y171800D01*
X99256Y172244D01*
X98723Y173133D01*
X98723Y174022D01*
X99256Y174911D01*
X100323Y175356D01*
G54D16*
X104946Y175800D02*
X104946Y170022D01*
G54D16*
X104946Y173133D02*
X105479Y171978D01*
X106546Y171800D01*
X107613Y171978D01*
X108146Y172867D01*
X108146Y174644D01*
X107613Y175533D01*
X106546Y175800D01*
X105479Y175533D01*
X104946Y174467D01*
G54D16*
X105867Y120078D02*
X105867Y115633D01*
X105333Y114744D01*
X104267Y114300D01*
X103200Y114300D01*
X102133Y114744D01*
X101600Y115633D01*
X101600Y120078D01*
X102133Y120967D01*
X103200Y121411D01*
X104267Y121411D01*
X105333Y120967D01*
X105867Y120078D01*
G54D16*
X107823Y114300D02*
X107823Y114300D01*
G54D16*
X112979Y114300D02*
X112979Y121411D01*
X109779Y116967D01*
X109779Y116078D01*
X114046Y116078D01*
G54D16*
X116002Y121411D02*
X120269Y121411D01*
X119735Y120522D01*
X118669Y119189D01*
X117602Y117411D01*
X117069Y116078D01*
X117069Y114300D01*
G54D16*
X125425Y118300D02*
X125425Y114300D01*
G54D16*
X125425Y115189D02*
X124892Y114478D01*
X123825Y114300D01*
X122758Y114478D01*
X122225Y115189D01*
X122225Y118300D01*
G54D16*
X381100Y267144D02*
X383767Y269811D01*
X383767Y262700D01*
G54D16*
X388923Y266700D02*
X388923Y262700D01*
G54D16*
X388923Y263589D02*
X388390Y262878D01*
X387323Y262700D01*
X386256Y262878D01*
X385723Y263589D01*
X385723Y266700D01*
G54D16*
X250900Y356744D02*
X253567Y359411D01*
X253567Y352300D01*
G54D16*
X259790Y358078D02*
X259790Y353633D01*
X259256Y352744D01*
X258190Y352300D01*
X257123Y352300D01*
X256056Y352744D01*
X255523Y353633D01*
X255523Y358078D01*
X256056Y358967D01*
X257123Y359411D01*
X258190Y359411D01*
X259256Y358967D01*
X259790Y358078D01*
G54D16*
X261746Y356300D02*
X261746Y350522D01*
G54D16*
X261746Y353633D02*
X262279Y352478D01*
X263346Y352300D01*
X264413Y352478D01*
X264946Y353367D01*
X264946Y355144D01*
X264413Y356033D01*
X263346Y356300D01*
X262279Y356033D01*
X261746Y354967D01*
G54D16*
X141854Y354844D02*
X144521Y357511D01*
X144521Y350400D01*
G54D16*
X150744Y356178D02*
X150744Y351733D01*
X150210Y350844D01*
X149144Y350400D01*
X148077Y350400D01*
X147010Y350844D01*
X146477Y351733D01*
X146477Y356178D01*
X147010Y357067D01*
X148077Y357511D01*
X149144Y357511D01*
X150210Y357067D01*
X150744Y356178D01*
G54D16*
X152700Y354400D02*
X152700Y348622D01*
G54D16*
X152700Y351733D02*
X153233Y350578D01*
X154300Y350400D01*
X155367Y350578D01*
X155900Y351467D01*
X155900Y353244D01*
X155367Y354133D01*
X154300Y354400D01*
X153233Y354133D01*
X152700Y353067D01*
G54D10*
X282600Y685800D02*
X227000Y685800D01*
X227000Y669900D01*
X204800Y669900D01*
X204800Y685800D01*
X149200Y685800D01*
X149200Y381000D01*
X282600Y381000D01*
X282600Y685800D01*
G36*
X149200Y685900D02*
X161900Y685900D01*
X149200Y673100D01*
X149200Y685900D01*
G37*
G54D10*
X25400Y546100D02*
X50800Y546100D01*
X50800Y419100D01*
X25400Y419100D01*
X25400Y546100D01*
G54D10*
X50800Y279400D02*
X25400Y279400D01*
X25400Y406400D01*
X50800Y406400D01*
X50800Y279400D01*
G54D17*
X577800Y292100D02*
X577800Y419100D01*
X450800Y419100D01*
X450800Y292100D01*
X577800Y292100D01*
G54D17*
X577800Y393700D02*
X615900Y393700D01*
X615900Y317500D01*
X577800Y317500D01*
G54D10*
X309139Y170107D02*
X329539Y170107D01*
X329539Y117307D01*
X309139Y117307D01*
X309139Y170107D01*
G54D10*
X324439Y184107D02*
X324439Y173907D01*
G54D10*
X329539Y179007D02*
X319339Y179007D01*
G54D18*
X316449Y192491D02*
X319782Y189158D01*
X310893Y189158D01*
G54D18*
X318116Y181381D02*
X312560Y181381D01*
X311449Y182048D01*
X310893Y183381D01*
X310893Y184714D01*
X311449Y186048D01*
X312560Y186714D01*
X318116Y186714D01*
X319227Y186048D01*
X319782Y184714D01*
X319782Y183381D01*
X319227Y182048D01*
X318116Y181381D01*
G54D18*
X315893Y174937D02*
X310893Y174937D01*
G54D18*
X312004Y174937D02*
X311116Y175604D01*
X310893Y176937D01*
X311116Y178270D01*
X312004Y178937D01*
X315893Y178937D01*
G54D10*
X485034Y631815D02*
X520034Y631815D01*
X520034Y696815D01*
X485034Y696815D01*
X485034Y631815D01*
G54D10*
X432339Y670107D02*
X452739Y670107D01*
X452739Y617307D01*
X432339Y617307D01*
X432339Y670107D01*
G54D10*
X447639Y684107D02*
X447639Y673907D01*
G54D10*
X452739Y679007D02*
X442539Y679007D01*
G54D18*
X504354Y677131D02*
X504354Y682464D01*
X500465Y682464D01*
X500465Y681797D01*
X501021Y680464D01*
X501021Y679131D01*
X500465Y677797D01*
X499354Y677131D01*
X497132Y677131D01*
X496021Y677797D01*
X495465Y679131D01*
X495465Y680464D01*
X496021Y681797D01*
X497132Y682464D01*
G54D18*
X504354Y674687D02*
X495465Y671354D01*
X504354Y668020D01*
G54D18*
X495465Y662999D02*
X504354Y659666D01*
X495465Y656332D01*
G54D18*
X498799Y661666D02*
X498799Y657666D01*
G54D18*
X495465Y653888D02*
X504354Y653888D01*
X498799Y650555D01*
X504354Y647221D01*
X495465Y647221D01*
G54D18*
X497132Y644777D02*
X496021Y644110D01*
X495465Y642777D01*
X495465Y641444D01*
X496021Y640110D01*
X497132Y639444D01*
X498243Y639444D01*
X499354Y640110D01*
X499910Y641444D01*
X499910Y642777D01*
X500465Y644110D01*
X501576Y644777D01*
X502687Y644777D01*
X503799Y644110D01*
X504354Y642777D01*
X504354Y641444D01*
X503799Y640110D01*
X502687Y639444D01*
G54D18*
X463949Y639491D02*
X467282Y636157D01*
X458393Y636157D01*
G54D18*
X465615Y628380D02*
X460060Y628380D01*
X458949Y629047D01*
X458393Y630380D01*
X458393Y631714D01*
X458949Y633047D01*
X460060Y633714D01*
X465615Y633714D01*
X466727Y633047D01*
X467282Y631714D01*
X467282Y630380D01*
X466727Y629047D01*
X465615Y628380D01*
G54D18*
X463393Y621937D02*
X458393Y621937D01*
G54D18*
X459504Y621937D02*
X458615Y622603D01*
X458393Y623937D01*
X458615Y625270D01*
X459504Y625937D01*
X463393Y625937D01*
G54D18*
X109500Y268400D02*
X109500Y277289D01*
X105500Y271733D01*
X105500Y270622D01*
X110833Y270622D01*
G54D18*
X113277Y268400D02*
X113277Y277289D01*
G54D18*
X115277Y271733D02*
X117277Y268400D01*
G54D18*
X113277Y270622D02*
X117277Y273400D01*
G54D18*
X119721Y277289D02*
X125054Y277289D01*
X124388Y276178D01*
X123054Y274511D01*
X121721Y272289D01*
X121054Y270622D01*
X121054Y268400D01*
G54D18*
X94456Y279400D02*
X97789Y276067D01*
X88900Y276067D01*
G54D18*
X93344Y270290D02*
X93344Y271623D01*
X93900Y272956D01*
X95011Y273623D01*
X96122Y273623D01*
X97233Y272956D01*
X97789Y271623D01*
X97789Y270290D01*
X97233Y268956D01*
X96122Y268290D01*
X95011Y268290D01*
X93900Y268956D01*
X93344Y270290D01*
X92789Y268956D01*
X91678Y268290D01*
X90567Y268290D01*
X89456Y268956D01*
X88900Y270290D01*
X88900Y271623D01*
X89456Y272956D01*
X90567Y273623D01*
X91678Y273623D01*
X92789Y272956D01*
X93344Y271623D01*
G54D18*
X96122Y260513D02*
X90567Y260513D01*
X89456Y261179D01*
X88900Y262513D01*
X88900Y263846D01*
X89456Y265179D01*
X90567Y265846D01*
X96122Y265846D01*
X97233Y265179D01*
X97789Y263846D01*
X97789Y262513D01*
X97233Y261179D01*
X96122Y260513D01*
G54D18*
X88900Y258069D02*
X93900Y258069D01*
G54D18*
X92789Y258069D02*
X93567Y257402D01*
X93900Y256069D01*
X93567Y254736D01*
X92789Y254069D01*
X88900Y254069D01*
G54D18*
X88900Y251625D02*
X97789Y251625D01*
G54D18*
X88900Y246292D02*
X97789Y246292D01*
G54D18*
X93344Y251625D02*
X93344Y246292D01*
G54D19*
X608429Y161207D02*
X610096Y162207D01*
X610929Y164207D01*
X610929Y166207D01*
X610096Y168207D01*
X608429Y169207D01*
X606763Y169207D01*
X605096Y168207D01*
X604263Y166207D01*
X604263Y164207D01*
X603429Y162207D01*
X601763Y161207D01*
X600096Y161207D01*
X598429Y162207D01*
X597596Y164207D01*
X597596Y166207D01*
X598429Y168207D01*
X600096Y169207D01*
G54D19*
X610929Y172874D02*
X603429Y172874D01*
G54D19*
X600929Y172874D02*
X600929Y172874D01*
G54D19*
X610929Y182541D02*
X597596Y182541D01*
X605929Y176541D01*
X607596Y176541D01*
X607596Y184541D01*
G54D19*
X597596Y188208D02*
X597596Y196208D01*
X599263Y195208D01*
X601763Y193208D01*
X605096Y191208D01*
X607596Y190208D01*
X610929Y190208D01*
G54D19*
X600096Y199875D02*
X598429Y200875D01*
X597596Y202875D01*
X597596Y204875D01*
X598429Y206875D01*
X600096Y207875D01*
X601763Y207875D01*
X603429Y206875D01*
X604263Y204875D01*
X605096Y206875D01*
X606763Y207875D01*
X608429Y207875D01*
X610096Y206875D01*
X610929Y204875D01*
X610929Y202875D01*
X610096Y200875D01*
X608429Y199875D01*
G54D19*
X597596Y219542D02*
X597596Y211542D01*
X603429Y211542D01*
X603429Y212542D01*
X602596Y214542D01*
X602596Y216542D01*
X603429Y218542D01*
X605096Y219542D01*
X608429Y219542D01*
X610096Y218542D01*
X610929Y216542D01*
X610929Y214542D01*
X610096Y212542D01*
X608429Y211542D01*
G54D19*
X608429Y227076D02*
X610096Y228076D01*
X610929Y230076D01*
X610929Y232076D01*
X610096Y234076D01*
X608429Y235076D01*
X606763Y235076D01*
X605096Y234076D01*
X604263Y232076D01*
X604263Y230076D01*
X603429Y228076D01*
X601763Y227076D01*
X600096Y227076D01*
X598429Y228076D01*
X597596Y230076D01*
X597596Y232076D01*
X598429Y234076D01*
X600096Y235076D01*
G54D19*
X608429Y238743D02*
X610096Y239743D01*
X610929Y241743D01*
X610929Y243743D01*
X610096Y245743D01*
X608429Y246743D01*
X606763Y246743D01*
X605096Y245743D01*
X604263Y243743D01*
X604263Y241743D01*
X603429Y239743D01*
X601763Y238743D01*
X600096Y238743D01*
X598429Y239743D01*
X597596Y241743D01*
X597596Y243743D01*
X598429Y245743D01*
X600096Y246743D01*
G54D19*
X610929Y250410D02*
X597596Y250410D01*
X597596Y255410D01*
X598429Y257410D01*
X600096Y258410D01*
X601763Y258410D01*
X603429Y257410D01*
X604263Y255410D01*
X605096Y257410D01*
X606763Y258410D01*
X608429Y258410D01*
X610096Y257410D01*
X610929Y255410D01*
X610929Y250410D01*
G54D19*
X604263Y250410D02*
X604263Y255410D01*
G54D19*
X604263Y269944D02*
X605929Y272944D01*
X607596Y273944D01*
X610929Y273944D01*
G54D19*
X610929Y265944D02*
X597596Y265944D01*
X597596Y270944D01*
X598429Y272944D01*
X600096Y273944D01*
X601763Y273944D01*
X603429Y272944D01*
X604263Y270944D01*
X604263Y265944D01*
G54D19*
X604263Y277611D02*
X603429Y279611D01*
X603429Y282011D01*
X605096Y283611D01*
X610929Y283611D01*
G54D19*
X608429Y283611D02*
X606763Y282611D01*
X606429Y280611D01*
X606763Y278611D01*
X608429Y277611D01*
X610096Y278011D01*
X610929Y279611D01*
X610929Y280611D01*
X610929Y281011D01*
X610096Y282611D01*
X608429Y283611D01*
G54D19*
X610929Y293278D02*
X597596Y293278D01*
G54D19*
X605596Y293278D02*
X603929Y292278D01*
X603429Y290278D01*
X603929Y288278D01*
X605596Y287278D01*
X608929Y287278D01*
X610596Y288278D01*
X610929Y290278D01*
X610596Y292278D01*
X608929Y293278D01*
G54D19*
X610929Y296945D02*
X603429Y296945D01*
G54D19*
X600929Y296945D02*
X600929Y296945D01*
G54D19*
X608929Y306612D02*
X605596Y306612D01*
X603929Y305612D01*
X603429Y303612D01*
X603929Y301612D01*
X605596Y300612D01*
X608929Y300612D01*
X610596Y301612D01*
X610929Y303612D01*
X610596Y305612D01*
X608929Y306612D01*
G54D20*
X80000Y243300D02*
X80000Y264400D01*
X67100Y264400D01*
X67100Y243300D01*
X80000Y243300D01*
G54D20*
X73400Y243300D02*
X73400Y249600D01*
G54D20*
X73400Y259100D02*
X73400Y264500D01*
G54D20*
X73300Y249600D02*
X74200Y249600D01*
X74600Y250000D01*
X74600Y250100D01*
X75100Y250600D01*
X75100Y251000D01*
X75100Y251500D01*
X74800Y251800D01*
X74800Y252100D01*
X74400Y252500D01*
X74200Y252500D01*
X73800Y252900D01*
X73400Y252900D01*
X73300Y253000D01*
X73800Y253000D01*
X74000Y253200D01*
X74400Y253200D01*
X74700Y253500D01*
X74700Y253700D01*
X75000Y254000D01*
X75000Y254300D01*
X75000Y254800D01*
X74600Y255200D01*
X74600Y255300D01*
X74200Y255700D01*
X74000Y255700D01*
X73700Y256000D01*
X73400Y256000D01*
X74000Y256000D01*
X74300Y256300D01*
X74400Y256300D01*
X74600Y256500D01*
X74800Y256700D01*
X74800Y256800D01*
X74800Y257000D01*
X75000Y257200D01*
X75000Y257700D01*
X75000Y257800D01*
X74600Y258200D01*
X74200Y258600D01*
X74100Y258600D01*
X73800Y258900D01*
X73400Y258900D01*
X73400Y259200D01*
G54D10*
X95700Y196900D02*
X75700Y196900D01*
X75700Y234900D01*
X95700Y234900D01*
X95700Y196900D01*
G54D10*
X188100Y478500D02*
X210100Y478500D01*
X210100Y440500D01*
X188100Y440500D01*
X188100Y478500D01*
G54D10*
X223300Y466700D02*
X245300Y466700D01*
X245300Y428700D01*
X223300Y428700D01*
X223300Y466700D01*
G54D21*
X210178Y426445D02*
X216844Y426445D01*
X218178Y425645D01*
X218844Y424045D01*
X218844Y422445D01*
X218178Y420845D01*
X216844Y420045D01*
X210178Y420045D01*
X208844Y420845D01*
X208178Y422445D01*
X208178Y424045D01*
X208844Y425645D01*
X210178Y426445D01*
G54D21*
X213511Y432578D02*
X214844Y434978D01*
X216178Y435778D01*
X218844Y435778D01*
G54D21*
X218844Y429378D02*
X208178Y429378D01*
X208178Y433378D01*
X208844Y434978D01*
X210178Y435778D01*
X211511Y435778D01*
X212844Y434978D01*
X213511Y433378D01*
X213511Y429378D01*
G54D21*
X168678Y463245D02*
X175344Y463245D01*
X176678Y462445D01*
X177344Y460845D01*
X177344Y459245D01*
X176678Y457645D01*
X175344Y456845D01*
X168678Y456845D01*
X167344Y457645D01*
X166678Y459245D01*
X166678Y460845D01*
X167344Y462445D01*
X168678Y463245D01*
G54D21*
X172011Y469378D02*
X173344Y471778D01*
X174678Y472578D01*
X177344Y472578D01*
G54D21*
X177344Y466178D02*
X166678Y466178D01*
X166678Y470178D01*
X167344Y471778D01*
X168678Y472578D01*
X170011Y472578D01*
X171344Y471778D01*
X172011Y470178D01*
X172011Y466178D01*
G54D18*
X368511Y187030D02*
X359622Y187030D01*
G54D18*
X359622Y184364D02*
X359622Y189697D01*
G54D18*
X368511Y192140D02*
X359622Y192140D01*
X359622Y195474D01*
X360178Y196807D01*
X361289Y197474D01*
X362400Y197474D01*
X363511Y196807D01*
X364067Y195474D01*
X364067Y192140D01*
G54D18*
X368511Y199918D02*
X359622Y203251D01*
X368511Y206584D01*
G54D18*
X365178Y201251D02*
X365178Y205251D01*
G54D18*
X361289Y209028D02*
X360178Y209695D01*
X359622Y211028D01*
X359622Y212362D01*
X360178Y213695D01*
X361289Y214362D01*
X362400Y214362D01*
X363511Y213695D01*
X364067Y212362D01*
X364622Y213695D01*
X365733Y214362D01*
X366844Y214362D01*
X367955Y213695D01*
X368511Y212362D01*
X368511Y211028D01*
X367955Y209695D01*
X366844Y209028D01*
G54D18*
X361289Y222139D02*
X366844Y222139D01*
X367955Y221472D01*
X368511Y220139D01*
X368511Y218806D01*
X367955Y217472D01*
X366844Y216806D01*
X361289Y216806D01*
X360178Y217472D01*
X359622Y218806D01*
X359622Y220139D01*
X360178Y221472D01*
X361289Y222139D01*
G54D18*
X362955Y224582D02*
X359622Y227916D01*
X368511Y227916D01*
G54D16*
X68672Y221839D02*
X75783Y221839D01*
X71339Y225039D01*
X70450Y225039D01*
X70450Y220772D01*
G54D16*
X68672Y218816D02*
X75783Y218816D01*
G54D16*
X70895Y218816D02*
X75783Y214549D01*
G54D16*
X72228Y217216D02*
X68672Y214549D01*
G54D16*
X75783Y212593D02*
X75783Y208326D01*
X74895Y208859D01*
X73561Y209926D01*
X71783Y210993D01*
X70450Y211526D01*
X68672Y211526D01*
G54D10*
X93900Y282600D02*
X93900Y304600D01*
X131900Y304600D01*
X131900Y282600D01*
X93900Y282600D01*
G54D18*
X196210Y486999D02*
X196210Y481443D01*
X195543Y480332D01*
X194210Y479776D01*
X192877Y479776D01*
X191543Y480332D01*
X190877Y481443D01*
X190877Y486999D01*
X191543Y488110D01*
X192877Y488665D01*
X194210Y488665D01*
X195543Y488110D01*
X196210Y486999D01*
G54D18*
X198654Y479776D02*
X198654Y484776D01*
G54D18*
X198654Y483665D02*
X199320Y484443D01*
X200654Y484776D01*
X201987Y484443D01*
X202654Y483665D01*
X202654Y479776D01*
G54D18*
X205098Y479776D02*
X205098Y488665D01*
G54D18*
X207542Y484776D02*
X210208Y479776D01*
X212875Y484776D01*
G54D18*
X210208Y479776D02*
X209542Y478110D01*
X208875Y477554D01*
X208208Y477554D01*
G54D18*
X223229Y486999D02*
X223229Y481443D01*
X222562Y480332D01*
X221229Y479776D01*
X219896Y479776D01*
X218562Y480332D01*
X217896Y481443D01*
X217896Y486999D01*
X218562Y488110D01*
X219896Y488665D01*
X221229Y488665D01*
X222562Y488110D01*
X223229Y486999D01*
G54D18*
X225673Y479776D02*
X225673Y484776D01*
G54D18*
X225673Y483665D02*
X226339Y484443D01*
X227673Y484776D01*
X229006Y484443D01*
X229673Y483665D01*
X229673Y479776D01*
G54D18*
X236117Y480332D02*
X235050Y479776D01*
X233717Y479776D01*
X232383Y480332D01*
X232117Y481443D01*
X232117Y483332D01*
X232783Y484443D01*
X234117Y484776D01*
X235450Y484443D01*
X236117Y483665D01*
X236117Y482554D01*
X232117Y482554D01*
G54D18*
X243804Y484221D02*
X245804Y483110D01*
X246471Y481999D01*
X246471Y479776D01*
G54D18*
X241138Y479776D02*
X241138Y488665D01*
X244471Y488665D01*
X245804Y488110D01*
X246471Y486999D01*
X246471Y485888D01*
X245804Y484776D01*
X244471Y484221D01*
X241138Y484221D01*
G54D18*
X158933Y276700D02*
X153600Y276700D01*
X153600Y277256D01*
X154267Y278367D01*
X158267Y281700D01*
X158933Y282811D01*
X158933Y283922D01*
X158267Y285033D01*
X156933Y285589D01*
X155600Y285589D01*
X154267Y285033D01*
X153600Y283922D01*
G54D18*
X161377Y276700D02*
X161377Y285589D01*
G54D18*
X163377Y280033D02*
X165377Y276700D01*
G54D18*
X161377Y278922D02*
X165377Y281700D01*
G54D18*
X173154Y276700D02*
X167821Y276700D01*
X167821Y277256D01*
X168488Y278367D01*
X172488Y281700D01*
X173154Y282811D01*
X173154Y283922D01*
X172488Y285033D01*
X171154Y285589D01*
X169821Y285589D01*
X168488Y285033D01*
X167821Y283922D01*
G54D18*
X3000Y270667D02*
X3667Y269556D01*
X5000Y269000D01*
X6333Y269000D01*
X7667Y269556D01*
X8333Y270667D01*
X8333Y271778D01*
X7667Y272889D01*
X6333Y273444D01*
X5000Y273444D01*
X3667Y274000D01*
X3000Y275111D01*
X3000Y276222D01*
X3667Y277333D01*
X5000Y277889D01*
X6333Y277889D01*
X7667Y277333D01*
X8333Y276222D01*
G54D18*
X10777Y277889D02*
X10777Y269000D01*
X14110Y274556D01*
X17444Y269000D01*
X17444Y277889D01*
G54D18*
X26555Y270111D02*
X21221Y274556D01*
X20555Y275667D01*
X20555Y276778D01*
X21888Y277889D01*
X23221Y277889D01*
X24555Y276778D01*
X24555Y275667D01*
X23888Y274556D01*
X20555Y272889D01*
X19888Y271778D01*
X19888Y270667D01*
X20555Y269556D01*
X21888Y269000D01*
X23221Y269000D01*
X24555Y269556D01*
X25888Y271778D01*
G54D18*
X28999Y269000D02*
X28999Y277889D01*
X33666Y277889D01*
G54D18*
X28999Y273444D02*
X33666Y273444D01*
G54D18*
X36110Y269000D02*
X36110Y277889D01*
X39443Y272333D01*
X42777Y277889D01*
X42777Y269000D01*
G54D18*
X17000Y152000D02*
X20333Y160889D01*
X23667Y152000D01*
G54D18*
X18333Y155333D02*
X22333Y155333D01*
G54D18*
X26111Y152000D02*
X26111Y160889D01*
X29444Y155333D01*
X32778Y160889D01*
X32778Y152000D01*
G54D21*
X260377Y490246D02*
X264377Y500912D01*
X268377Y490246D01*
G54D21*
X261977Y494246D02*
X266777Y494246D01*
G54D21*
X277710Y498912D02*
X277710Y492246D01*
X276910Y490912D01*
X275310Y490246D01*
X273710Y490246D01*
X272110Y490912D01*
X271310Y492246D01*
X271310Y498912D01*
X272110Y500246D01*
X273710Y500912D01*
X275310Y500912D01*
X276910Y500246D01*
X277710Y498912D01*
G54D21*
X337377Y490246D02*
X341377Y500912D01*
X345377Y490246D01*
G54D21*
X338977Y494246D02*
X343777Y494246D01*
G54D21*
X354710Y498912D02*
X354710Y492246D01*
X353910Y490912D01*
X352310Y490246D01*
X350710Y490246D01*
X349110Y490912D01*
X348310Y492246D01*
X348310Y498912D01*
X349110Y500246D01*
X350710Y500912D01*
X352310Y500912D01*
X353910Y500246D01*
X354710Y498912D01*
G54D19*
X331721Y462916D02*
X336721Y467916D01*
X336721Y454582D01*
G54D19*
X340388Y465416D02*
X341388Y467082D01*
X343388Y467916D01*
X345388Y467916D01*
X347388Y467082D01*
X348388Y465416D01*
X348388Y463749D01*
X347388Y462082D01*
X345388Y461249D01*
X347388Y460416D01*
X348388Y458749D01*
X348388Y457082D01*
X347388Y455416D01*
X345388Y454582D01*
X343388Y454582D01*
X341388Y455416D01*
X340388Y457082D01*
G54D19*
X256521Y469116D02*
X261521Y474116D01*
X261521Y460782D01*
G54D19*
X265188Y471616D02*
X266188Y473282D01*
X268188Y474116D01*
X270188Y474116D01*
X272188Y473282D01*
X273188Y471616D01*
X273188Y469949D01*
X272188Y468282D01*
X270188Y467449D01*
X272188Y466616D01*
X273188Y464949D01*
X273188Y463282D01*
X272188Y461616D01*
X270188Y460782D01*
X268188Y460782D01*
X266188Y461616D01*
X265188Y463282D01*
G54D10*
X47774Y210061D02*
X47774Y222761D01*
X15974Y222761D01*
X15974Y210061D01*
X47774Y210061D01*
G54D16*
X14063Y214222D02*
X13529Y213333D01*
X12463Y212889D01*
X11396Y212889D01*
X10329Y213333D01*
X9796Y214222D01*
X9796Y218667D01*
X10329Y219556D01*
X11396Y220000D01*
X12463Y220000D01*
X13529Y219556D01*
X14063Y218667D01*
G54D16*
X16019Y212889D02*
X16019Y220000D01*
X18686Y215556D01*
X21352Y220000D01*
X21352Y212889D01*
G54D16*
X23308Y217333D02*
X25975Y220000D01*
X25975Y212889D01*
G54D16*
X32198Y212889D02*
X27931Y212889D01*
X27931Y213333D01*
X28464Y214222D01*
X31664Y216889D01*
X32198Y217778D01*
X32198Y218667D01*
X31664Y219556D01*
X30598Y220000D01*
X29531Y220000D01*
X28464Y219556D01*
X27931Y218667D01*
G54D16*
X34154Y217333D02*
X36821Y220000D01*
X36821Y212889D01*
G54D16*
X38777Y218667D02*
X39310Y219556D01*
X40377Y220000D01*
X41444Y220000D01*
X42510Y219556D01*
X43044Y218667D01*
X43044Y217778D01*
X42510Y216889D01*
X41444Y216445D01*
X42510Y216000D01*
X43044Y215111D01*
X43044Y214222D01*
X42510Y213333D01*
X41444Y212889D01*
X40377Y212889D01*
X39310Y213333D01*
X38777Y214222D01*
G54D16*
X45000Y216445D02*
X46067Y216889D01*
X47347Y216889D01*
X48200Y216000D01*
X48200Y212889D01*
G54D16*
X48200Y214222D02*
X47667Y215111D01*
X46600Y215289D01*
X45533Y215111D01*
X45000Y214222D01*
X45213Y213333D01*
X46067Y212889D01*
X46600Y212889D01*
X46813Y212889D01*
X47667Y213333D01*
X48200Y214222D01*
G54D18*
X78000Y154889D02*
X78000Y146000D01*
X82667Y146000D01*
G54D18*
X85111Y154889D02*
X85111Y146000D01*
X88444Y151556D01*
X91778Y146000D01*
X91778Y154889D01*
G54D10*
X475200Y185500D02*
X475200Y205900D01*
X528000Y205900D01*
X528000Y185500D01*
X475200Y185500D01*
G54D10*
X461200Y200800D02*
X471400Y200800D01*
G54D10*
X466300Y205900D02*
X466300Y195700D01*
G54D18*
X489789Y178299D02*
X493123Y181633D01*
X493122Y172744D01*
G54D18*
X500899Y179966D02*
X500899Y174410D01*
X500233Y173299D01*
X498899Y172744D01*
X497566Y172744D01*
X496233Y173299D01*
X495566Y174410D01*
X495566Y179966D01*
X496233Y181077D01*
X497566Y181633D01*
X498899Y181633D01*
X500233Y181077D01*
X500899Y179966D01*
G54D18*
X507343Y177744D02*
X507343Y172744D01*
G54D18*
X507343Y173855D02*
X506676Y172966D01*
X505343Y172744D01*
X504010Y172966D01*
X503343Y173855D01*
X503343Y177744D01*
G54D16*
X602000Y339000D02*
X594889Y341667D01*
X602000Y344333D01*
G54D16*
X599333Y340067D02*
X599333Y343267D01*
G54D16*
X598000Y349489D02*
X602000Y349489D01*
G54D16*
X601111Y349489D02*
X601822Y348956D01*
X602000Y347889D01*
X601822Y346822D01*
X601111Y346289D01*
X598000Y346289D01*
G54D16*
X602000Y354645D02*
X594889Y354645D01*
G54D16*
X599156Y354645D02*
X598267Y354112D01*
X598000Y353045D01*
X598267Y351978D01*
X599156Y351445D01*
X600933Y351445D01*
X601822Y351978D01*
X602000Y353045D01*
X601822Y354112D01*
X600933Y354645D01*
G54D16*
X602000Y356601D02*
X598000Y356601D01*
G54D16*
X596667Y356601D02*
X596667Y356601D01*
G54D16*
X600933Y361757D02*
X599156Y361757D01*
X598267Y361224D01*
X598000Y360157D01*
X598267Y359090D01*
X599156Y358557D01*
X600933Y358557D01*
X601822Y359090D01*
X602000Y360157D01*
X601822Y361224D01*
X600933Y361757D01*
G54D16*
X596222Y370043D02*
X600667Y370043D01*
X601556Y369509D01*
X602000Y368443D01*
X602000Y367376D01*
X601556Y366309D01*
X600667Y365776D01*
X596222Y365776D01*
X595333Y366309D01*
X594889Y367376D01*
X594889Y368443D01*
X595333Y369509D01*
X596222Y370043D01*
G54D16*
X598000Y375199D02*
X602000Y375199D01*
G54D16*
X601111Y375199D02*
X601822Y374666D01*
X602000Y373599D01*
X601822Y372532D01*
X601111Y371999D01*
X598000Y371999D01*
G54D16*
X594889Y378222D02*
X601556Y378222D01*
X602000Y378755D01*
X601822Y379288D01*
G54D16*
X598000Y377155D02*
X598000Y379288D01*
G54D10*
X595500Y526000D02*
X595500Y506000D01*
X557500Y506000D01*
X557500Y526000D01*
X595500Y526000D01*
G54D10*
X442000Y255500D02*
X422000Y255500D01*
X422000Y293500D01*
X442000Y293500D01*
X442000Y255500D01*
G54D10*
X491500Y281000D02*
X511500Y281000D01*
X511500Y243000D01*
X491500Y243000D01*
X491500Y281000D01*
G54D10*
X569500Y436000D02*
X569500Y456000D01*
X607500Y456000D01*
X607500Y436000D01*
X569500Y436000D01*
G54D10*
X468700Y243600D02*
X481400Y243600D01*
X481400Y275400D01*
X468700Y275400D01*
X468700Y243600D01*
G54D10*
X583700Y464600D02*
X596400Y464600D01*
X596400Y496400D01*
X583700Y496400D01*
X583700Y464600D01*
G54D10*
X353300Y485700D02*
X375300Y485700D01*
X375300Y447700D01*
X353300Y447700D01*
X353300Y485700D01*
G54D21*
X385696Y477411D02*
X385696Y470744D01*
X384896Y469411D01*
X383296Y468744D01*
X381696Y468744D01*
X380096Y469411D01*
X379296Y470744D01*
X379296Y477411D01*
X380096Y478744D01*
X381696Y479411D01*
X383296Y479411D01*
X384896Y478744D01*
X385696Y477411D01*
G54D21*
X391829Y474077D02*
X394229Y472744D01*
X395029Y471411D01*
X395029Y468744D01*
G54D21*
X388629Y468744D02*
X388629Y479411D01*
X392629Y479411D01*
X394229Y478744D01*
X395029Y477411D01*
X395029Y476077D01*
X394229Y474744D01*
X392629Y474077D01*
X388629Y474077D01*
G54D16*
X516672Y265839D02*
X523783Y265839D01*
X519339Y269039D01*
X518450Y269039D01*
X518450Y264772D01*
G54D16*
X516672Y262816D02*
X523783Y262816D01*
G54D16*
X518895Y262816D02*
X523783Y258549D01*
G54D16*
X520228Y261216D02*
X516672Y258549D01*
G54D16*
X523783Y256593D02*
X523783Y252326D01*
X522895Y252859D01*
X521561Y253926D01*
X519783Y254993D01*
X518450Y255526D01*
X516672Y255526D01*
G54D16*
X443744Y271323D02*
X450856Y271323D01*
X446411Y274523D01*
X445522Y274523D01*
X445522Y270256D01*
G54D16*
X443744Y268300D02*
X450856Y268300D01*
G54D16*
X445967Y268300D02*
X450856Y264033D01*
G54D16*
X447300Y266700D02*
X443744Y264033D01*
G54D16*
X450856Y262077D02*
X450856Y257810D01*
X449967Y258344D01*
X448633Y259410D01*
X446856Y260477D01*
X445522Y261010D01*
X443744Y261010D01*
G54D16*
X570900Y530700D02*
X570900Y537811D01*
X567700Y533366D01*
X567700Y532477D01*
X571967Y532477D01*
G54D16*
X573923Y530700D02*
X573923Y537811D01*
G54D16*
X573923Y532922D02*
X578190Y537811D01*
G54D16*
X575523Y534255D02*
X578190Y530700D01*
G54D16*
X580146Y537811D02*
X584413Y537811D01*
X583880Y536922D01*
X582813Y535588D01*
X581746Y533811D01*
X581213Y532477D01*
X581213Y530700D01*
G54D16*
X595900Y424700D02*
X595900Y431811D01*
X592700Y427366D01*
X592700Y426477D01*
X596967Y426477D01*
G54D16*
X598923Y424700D02*
X598923Y431811D01*
G54D16*
X598923Y426922D02*
X603190Y431811D01*
G54D16*
X600523Y428255D02*
X603190Y424700D01*
G54D16*
X605146Y431811D02*
X609413Y431811D01*
X608880Y430922D01*
X607813Y429588D01*
X606746Y427811D01*
X606213Y426477D01*
X606213Y424700D01*
G54D16*
X561732Y481437D02*
X561732Y485704D01*
X562177Y485704D01*
X563066Y485171D01*
X565732Y481971D01*
X566621Y481437D01*
X567510Y481437D01*
X568399Y481971D01*
X568844Y483037D01*
X568844Y484104D01*
X568399Y485171D01*
X567510Y485704D01*
G54D16*
X561732Y479481D02*
X568844Y479481D01*
X561732Y475214D01*
X568844Y475214D01*
G54D16*
X561732Y468991D02*
X561732Y473258D01*
X562177Y473258D01*
X563066Y472725D01*
X565732Y469525D01*
X566621Y468991D01*
X567510Y468991D01*
X568399Y469525D01*
X568844Y470591D01*
X568844Y471658D01*
X568399Y472725D01*
X567510Y473258D01*
G54D16*
X561732Y462768D02*
X561732Y467035D01*
X562177Y467035D01*
X563066Y466502D01*
X565732Y463302D01*
X566621Y462768D01*
X567510Y462768D01*
X568399Y463302D01*
X568844Y464368D01*
X568844Y465435D01*
X568399Y466502D01*
X567510Y467035D01*
G54D16*
X561732Y456545D02*
X561732Y460812D01*
X562177Y460812D01*
X563066Y460279D01*
X565732Y457079D01*
X566621Y456545D01*
X567510Y456545D01*
X568399Y457079D01*
X568844Y458145D01*
X568844Y459212D01*
X568399Y460279D01*
X567510Y460812D01*
G54D16*
X561732Y450322D02*
X561732Y454589D01*
X562177Y454589D01*
X563066Y454056D01*
X565732Y450856D01*
X566621Y450322D01*
X567510Y450322D01*
X568399Y450856D01*
X568844Y451922D01*
X568844Y452989D01*
X568399Y454056D01*
X567510Y454589D01*
G54D16*
X457000Y271913D02*
X457000Y276179D01*
X457444Y276179D01*
X458333Y275646D01*
X461000Y272446D01*
X461889Y271913D01*
X462778Y271913D01*
X463667Y272446D01*
X464111Y273513D01*
X464111Y274579D01*
X463667Y275646D01*
X462778Y276179D01*
G54D16*
X457000Y269956D02*
X464111Y269956D01*
X457000Y265690D01*
X464111Y265690D01*
G54D16*
X457000Y259467D02*
X457000Y263733D01*
X457444Y263733D01*
X458333Y263200D01*
X461000Y260000D01*
X461889Y259467D01*
X462778Y259467D01*
X463667Y260000D01*
X464111Y261067D01*
X464111Y262133D01*
X463667Y263200D01*
X462778Y263733D01*
G54D16*
X457000Y253244D02*
X457000Y257510D01*
X457444Y257510D01*
X458333Y256977D01*
X461000Y253777D01*
X461889Y253244D01*
X462778Y253244D01*
X463667Y253777D01*
X464111Y254844D01*
X464111Y255910D01*
X463667Y256977D01*
X462778Y257510D01*
G54D16*
X457000Y247021D02*
X457000Y251287D01*
X457444Y251287D01*
X458333Y250754D01*
X461000Y247554D01*
X461889Y247021D01*
X462778Y247021D01*
X463667Y247554D01*
X464111Y248621D01*
X464111Y249687D01*
X463667Y250754D01*
X462778Y251287D01*
G54D16*
X457000Y240798D02*
X457000Y245064D01*
X457444Y245064D01*
X458333Y244531D01*
X461000Y241331D01*
X461889Y240798D01*
X462778Y240798D01*
X463667Y241331D01*
X464111Y242398D01*
X464111Y243464D01*
X463667Y244531D01*
X462778Y245064D01*
G54D22*
X193841Y248241D02*
X193841Y161625D01*
G54D22*
X193841Y248241D02*
X142445Y248241D01*
G54D22*
X177966Y248241D02*
X177966Y244272D01*
G54D22*
X158320Y248241D02*
X158320Y244272D01*
G54D22*
X177966Y244272D02*
X158320Y244272D01*
G54D22*
X142445Y248241D02*
X142445Y161625D01*
G54D22*
X193841Y161625D02*
X142445Y161625D01*
G54D20*
X213000Y331200D02*
X213000Y391500D01*
X194900Y391500D01*
X194900Y331200D01*
X213000Y331200D01*
G54D20*
X209900Y331200D02*
X209900Y324900D01*
G54D20*
X198800Y331200D02*
X198800Y324900D01*
G54D18*
X378400Y483800D02*
X378400Y492689D01*
X381733Y487133D01*
X385067Y492689D01*
X385067Y483800D01*
G54D18*
X391511Y488800D02*
X391511Y483800D01*
G54D18*
X391511Y484911D02*
X390844Y484022D01*
X389511Y483800D01*
X388178Y484022D01*
X387511Y484911D01*
X387511Y488800D01*
G54D18*
X395288Y492689D02*
X395288Y484356D01*
X395955Y483800D01*
X396622Y484022D01*
G54D18*
X393955Y488800D02*
X396622Y488800D01*
G54D18*
X403066Y484356D02*
X401999Y483800D01*
X400666Y483800D01*
X399333Y484356D01*
X399066Y485467D01*
X399066Y487356D01*
X399733Y488467D01*
X401066Y488800D01*
X402399Y488467D01*
X403066Y487689D01*
X403066Y486578D01*
X399066Y486578D01*
G54D15*
X11866Y620878D02*
X11866Y627989D01*
X14533Y627989D01*
X15600Y627545D01*
X16133Y626656D01*
X16133Y625767D01*
X15600Y624878D01*
X14533Y624434D01*
X15600Y623989D01*
X16133Y623100D01*
X16133Y622211D01*
X15600Y621322D01*
X14533Y620878D01*
X11866Y620878D01*
G54D15*
X11866Y624434D02*
X14533Y624434D01*
G54D15*
X12534Y594778D02*
X15200Y601889D01*
X17867Y594778D01*
G54D15*
X13600Y597445D02*
X16800Y597445D01*
G54D15*
X600Y569378D02*
X600Y576489D01*
X3266Y572045D01*
X5933Y576489D01*
X5933Y569378D01*
G54D15*
X11622Y570445D02*
X11622Y572222D01*
X11088Y573111D01*
X10022Y573378D01*
X8955Y573111D01*
X8422Y572222D01*
X8422Y570445D01*
X8955Y569556D01*
X10022Y569378D01*
X11088Y569556D01*
X11622Y570445D01*
G54D15*
X17310Y569378D02*
X17310Y576489D01*
G54D15*
X17310Y572222D02*
X16777Y573111D01*
X15710Y573378D01*
X14644Y573111D01*
X14110Y572222D01*
X14110Y570445D01*
X14644Y569556D01*
X15710Y569378D01*
X16777Y569556D01*
X17310Y570445D01*
G54D15*
X23000Y569822D02*
X22146Y569378D01*
X21080Y569378D01*
X20013Y569822D01*
X19800Y570711D01*
X19800Y572222D01*
X20333Y573111D01*
X21400Y573378D01*
X22466Y573111D01*
X23000Y572489D01*
X23000Y571600D01*
X19800Y571600D01*
G54D15*
X600Y533578D02*
X600Y540689D01*
X3266Y536245D01*
X5933Y540689D01*
X5933Y533578D01*
G54D15*
X11622Y534645D02*
X11622Y536422D01*
X11088Y537311D01*
X10022Y537578D01*
X8955Y537311D01*
X8422Y536422D01*
X8422Y534645D01*
X8955Y533756D01*
X10022Y533578D01*
X11088Y533756D01*
X11622Y534645D01*
G54D15*
X17310Y533578D02*
X17310Y540689D01*
G54D15*
X17310Y536422D02*
X16777Y537311D01*
X15710Y537578D01*
X14644Y537311D01*
X14110Y536422D01*
X14110Y534645D01*
X14644Y533756D01*
X15710Y533578D01*
X16777Y533756D01*
X17310Y534645D01*
G54D15*
X23000Y534022D02*
X22146Y533578D01*
X21080Y533578D01*
X20013Y534022D01*
X19800Y534911D01*
X19800Y536422D01*
X20333Y537311D01*
X21400Y537578D01*
X22466Y537311D01*
X23000Y536689D01*
X23000Y535800D01*
X19800Y535800D01*
G54D15*
X1310Y506678D02*
X1310Y513789D01*
X3977Y513789D01*
X5044Y513345D01*
X5577Y512456D01*
X5577Y511567D01*
X5044Y510678D01*
X3977Y510234D01*
X5044Y509789D01*
X5577Y508900D01*
X5577Y508011D01*
X5044Y507122D01*
X3977Y506678D01*
X1310Y506678D01*
G54D15*
X1310Y510234D02*
X3977Y510234D01*
G54D15*
X8066Y506678D02*
X12333Y513789D01*
G54D15*
X14822Y513789D02*
X14822Y506678D01*
X17489Y511122D01*
X20156Y506678D01*
X20156Y513789D01*
G54D15*
X1255Y489189D02*
X3922Y482078D01*
X6588Y489189D01*
G54D15*
X12277Y483145D02*
X12277Y484922D01*
X11744Y485811D01*
X10677Y486078D01*
X9610Y485811D01*
X9077Y484922D01*
X9077Y483145D01*
X9610Y482256D01*
X10677Y482078D01*
X11744Y482256D01*
X12277Y483145D01*
G54D15*
X14766Y482078D02*
X14766Y489189D01*
G54D15*
X17255Y485189D02*
X21522Y485189D01*
G54D15*
X19388Y486967D02*
X19388Y483411D01*
G54D15*
X555Y462989D02*
X3222Y455878D01*
X5888Y462989D01*
G54D15*
X11577Y456945D02*
X11577Y458722D01*
X11044Y459611D01*
X9977Y459878D01*
X8910Y459611D01*
X8377Y458722D01*
X8377Y456945D01*
X8910Y456056D01*
X9977Y455878D01*
X11044Y456056D01*
X11577Y456945D01*
G54D15*
X14066Y455878D02*
X14066Y462989D01*
G54D15*
X16555Y458989D02*
X20822Y458989D01*
G54D15*
X600Y431278D02*
X600Y438389D01*
X3267Y438389D01*
X4333Y437945D01*
X4867Y437056D01*
X4867Y436167D01*
X4333Y435278D01*
X3267Y434834D01*
X4333Y434389D01*
X4867Y433500D01*
X4867Y432611D01*
X4333Y431722D01*
X3267Y431278D01*
X600Y431278D01*
G54D15*
X600Y434834D02*
X3267Y434834D01*
G54D15*
X7356Y434834D02*
X8423Y435278D01*
X9703Y435278D01*
X10556Y434389D01*
X10556Y431278D01*
G54D15*
X10556Y432611D02*
X10023Y433500D01*
X8956Y433678D01*
X7889Y433500D01*
X7356Y432611D01*
X7569Y431722D01*
X8423Y431278D01*
X8956Y431278D01*
X9169Y431278D01*
X10023Y431722D01*
X10556Y432611D01*
G54D15*
X13045Y431278D02*
X13045Y435278D01*
G54D15*
X13045Y434389D02*
X13578Y435011D01*
X14645Y435278D01*
X15712Y435011D01*
X16245Y434389D01*
X16245Y431278D01*
G54D15*
X18734Y434389D02*
X23001Y434389D01*
G54D15*
X20867Y436167D02*
X20867Y432611D01*
G54D15*
X600Y390978D02*
X600Y398089D01*
X3267Y398089D01*
X4333Y397645D01*
X4867Y396756D01*
X4867Y395867D01*
X4333Y394978D01*
X3267Y394534D01*
X4333Y394089D01*
X4867Y393200D01*
X4867Y392311D01*
X4333Y391422D01*
X3267Y390978D01*
X600Y390978D01*
G54D15*
X600Y394534D02*
X3267Y394534D01*
G54D15*
X7356Y394534D02*
X8423Y394978D01*
X9703Y394978D01*
X10556Y394089D01*
X10556Y390978D01*
G54D15*
X10556Y392311D02*
X10023Y393200D01*
X8956Y393378D01*
X7889Y393200D01*
X7356Y392311D01*
X7569Y391422D01*
X8423Y390978D01*
X8956Y390978D01*
X9169Y390978D01*
X10023Y391422D01*
X10556Y392311D01*
G54D15*
X13045Y390978D02*
X13045Y394978D01*
G54D15*
X13045Y394089D02*
X13578Y394711D01*
X14645Y394978D01*
X15712Y394711D01*
X16245Y394089D01*
X16245Y390978D01*
G54D15*
X18734Y394089D02*
X23001Y394089D01*
G54D15*
X610Y364878D02*
X610Y371989D01*
X3277Y371989D01*
X4344Y371545D01*
X4877Y370656D01*
X4877Y369767D01*
X4344Y368878D01*
X3277Y368434D01*
X4344Y367989D01*
X4877Y367100D01*
X4877Y366211D01*
X4344Y365322D01*
X3277Y364878D01*
X610Y364878D01*
G54D15*
X610Y368434D02*
X3277Y368434D01*
G54D15*
X7366Y364878D02*
X7366Y371989D01*
X11100Y371989D01*
G54D15*
X7366Y368434D02*
X11100Y368434D01*
G54D15*
X17855Y370656D02*
X17855Y366211D01*
X17322Y365322D01*
X16255Y364878D01*
X15188Y364878D01*
X14122Y365322D01*
X13588Y366211D01*
X13588Y370656D01*
X14122Y371545D01*
X15188Y371989D01*
X16255Y371989D01*
X17322Y371545D01*
X17855Y370656D01*
G54D15*
X1301Y339478D02*
X3968Y346589D01*
X6634Y339478D01*
G54D15*
X2368Y342145D02*
X5568Y342145D01*
G54D15*
X11256Y343034D02*
X13390Y343034D01*
X13390Y340811D01*
X12856Y339922D01*
X11790Y339478D01*
X10723Y339478D01*
X9656Y339922D01*
X9123Y340811D01*
X9123Y345256D01*
X9656Y346145D01*
X10723Y346589D01*
X11790Y346589D01*
X12856Y346145D01*
X13390Y345256D01*
G54D15*
X20146Y340811D02*
X19612Y339922D01*
X18546Y339478D01*
X17479Y339478D01*
X16412Y339922D01*
X15879Y340811D01*
X15879Y345256D01*
X16412Y346145D01*
X17479Y346589D01*
X18546Y346589D01*
X19612Y346145D01*
X20146Y345256D01*
G54D15*
X599Y316211D02*
X1132Y315322D01*
X2199Y314878D01*
X3266Y314878D01*
X4332Y315322D01*
X4866Y316211D01*
X4866Y317100D01*
X4332Y317989D01*
X3266Y318434D01*
X2199Y318434D01*
X1132Y318878D01*
X599Y319767D01*
X599Y320656D01*
X1132Y321545D01*
X2199Y321989D01*
X3266Y321989D01*
X4332Y321545D01*
X4866Y320656D01*
G54D15*
X9488Y314878D02*
X9488Y321989D01*
G54D15*
X7355Y321989D02*
X11622Y321989D01*
G54D15*
X17844Y314878D02*
X14111Y314878D01*
X14111Y321989D01*
X17844Y321989D01*
G54D15*
X14111Y318434D02*
X17844Y318434D01*
G54D15*
X20333Y314878D02*
X20333Y321989D01*
X23000Y321989D01*
X24066Y321545D01*
X24600Y320656D01*
X24600Y319767D01*
X24066Y318878D01*
X23000Y318434D01*
X20333Y318434D01*
G54D15*
X5734Y293034D02*
X7868Y293034D01*
X7868Y290811D01*
X7334Y289922D01*
X6268Y289478D01*
X5201Y289478D01*
X4134Y289922D01*
X3601Y290811D01*
X3601Y295256D01*
X4134Y296145D01*
X5201Y296589D01*
X6268Y296589D01*
X7334Y296145D01*
X7868Y295256D01*
G54D15*
X10357Y289478D02*
X10357Y296589D01*
X14624Y289478D01*
X14624Y296589D01*
G54D15*
X17113Y289478D02*
X17113Y296589D01*
X19780Y296589D01*
X20846Y296145D01*
X21380Y295256D01*
X21380Y290811D01*
X20846Y289922D01*
X19780Y289478D01*
X17113Y289478D01*
G54D15*
X5734Y647534D02*
X7868Y647534D01*
X7868Y645311D01*
X7334Y644422D01*
X6268Y643978D01*
X5201Y643978D01*
X4134Y644422D01*
X3601Y645311D01*
X3601Y649756D01*
X4134Y650645D01*
X5201Y651089D01*
X6268Y651089D01*
X7334Y650645D01*
X7868Y649756D01*
G54D15*
X10357Y643978D02*
X10357Y651089D01*
X14624Y643978D01*
X14624Y651089D01*
G54D15*
X17113Y643978D02*
X17113Y651089D01*
X19780Y651089D01*
X20846Y650645D01*
X21380Y649756D01*
X21380Y645311D01*
X20846Y644422D01*
X19780Y643978D01*
X17113Y643978D01*
G54D12*
X454833Y114456D02*
X452967Y112900D01*
X449500Y112900D01*
X447100Y114456D01*
X445500Y116900D01*
X445500Y123344D01*
X447100Y125789D01*
X449500Y126900D01*
X452967Y126900D01*
X454833Y124900D01*
X454833Y117789D01*
G54D12*
X454300Y120456D02*
X454033Y122233D01*
X451367Y123344D01*
X449500Y122233D01*
X448967Y120456D01*
X449500Y118456D01*
X451367Y117344D01*
X454033Y118456D01*
X454300Y120456D01*
G54D12*
X465055Y121789D02*
X469055Y119567D01*
X470389Y117344D01*
X470389Y112900D01*
G54D12*
X459722Y112900D02*
X459722Y130678D01*
X466389Y130678D01*
X469055Y129567D01*
X470389Y127344D01*
X470389Y125122D01*
X469055Y122900D01*
X466389Y121789D01*
X459722Y121789D01*
G54D12*
X475278Y116233D02*
X476611Y114011D01*
X479278Y112900D01*
X481945Y112900D01*
X484611Y114011D01*
X485945Y116233D01*
X485945Y118456D01*
X484611Y120678D01*
X481945Y121789D01*
X479278Y121789D01*
X476611Y122900D01*
X475278Y125122D01*
X475278Y127344D01*
X476611Y129567D01*
X479278Y130678D01*
X481945Y130678D01*
X484611Y129567D01*
X485945Y127344D01*
G54D12*
X490834Y130678D02*
X501501Y130678D01*
X490834Y112900D01*
X501501Y112900D01*
G54D12*
X522213Y112900D02*
X511546Y112900D01*
X511546Y114011D01*
X512879Y116233D01*
X520879Y122900D01*
X522213Y125122D01*
X522213Y127344D01*
X520879Y129567D01*
X518213Y130678D01*
X515546Y130678D01*
X512879Y129567D01*
X511546Y127344D01*
G54D12*
X537769Y127344D02*
X537769Y116233D01*
X536435Y114011D01*
X533769Y112900D01*
X531102Y112900D01*
X528435Y114011D01*
X527102Y116233D01*
X527102Y127344D01*
X528435Y129567D01*
X531102Y130678D01*
X533769Y130678D01*
X536435Y129567D01*
X537769Y127344D01*
G54D12*
X553325Y112900D02*
X542658Y112900D01*
X542658Y114011D01*
X543991Y116233D01*
X551991Y122900D01*
X553325Y125122D01*
X553325Y127344D01*
X551991Y129567D01*
X549325Y130678D01*
X546658Y130678D01*
X543991Y129567D01*
X542658Y127344D01*
G54D12*
X568881Y127344D02*
X568881Y116233D01*
X567547Y114011D01*
X564881Y112900D01*
X562214Y112900D01*
X559547Y114011D01*
X558214Y116233D01*
X558214Y127344D01*
X559547Y129567D01*
X562214Y130678D01*
X564881Y130678D01*
X567547Y129567D01*
X568881Y127344D01*
M02*
