%FSLAX34Y34*%
%MOMM*%
%LNCOPPER_TOP*%
G71*
G01*
%ADD10C,1.520*%
%ADD11C,1.600*%
%ADD12C,2.000*%
%ADD13R,1.300X1.600*%
%ADD14R,1.600X1.300*%
%ADD15C,1.900*%
%ADD16R,2.200X0.700*%
%ADD17R,1.400X1.300*%
%ADD18C,0.800*%
%ADD19C,0.500*%
%ADD20C,0.300*%
%ADD21C,1.000*%
%ADD22C,0.400*%
%ADD23C,0.600*%
%ADD24C,1.600*%
%ADD25R,1.800X1.380*%
%ADD26C,0.700*%
%ADD27R,1.400X1.200*%
%ADD28R,1.400X3.500*%
%ADD29R,1.400X0.800*%
%ADD30C,2.000*%
%ADD31C,1.600*%
%ADD32R,1.100X1.100*%
%ADD33R,1.300X1.400*%
%ADD34R,1.320X0.420*%
%ADD35C,1.100*%
%LPD*%
G36*
X477500Y553700D02*
X477500Y538500D01*
X462300Y538500D01*
X462300Y553700D01*
X477500Y553700D01*
G37*
X469900Y520700D02*
G54D10*
D03*
X469900Y495300D02*
G54D10*
D03*
X469900Y469900D02*
G54D10*
D03*
X88900Y673100D02*
G54D11*
D03*
X88900Y647700D02*
G54D11*
D03*
X88900Y622300D02*
G54D11*
D03*
X88900Y596900D02*
G54D11*
D03*
X76200Y571500D02*
G54D12*
D03*
X76200Y546100D02*
G54D12*
D03*
X76200Y520700D02*
G54D12*
D03*
X76200Y495300D02*
G54D12*
D03*
X76200Y469900D02*
G54D12*
D03*
X76200Y444500D02*
G54D12*
D03*
X76200Y419100D02*
G54D12*
D03*
X76200Y393700D02*
G54D12*
D03*
X76200Y368300D02*
G54D12*
D03*
X76200Y342900D02*
G54D12*
D03*
X76200Y317500D02*
G54D12*
D03*
X63500Y127000D02*
G54D13*
D03*
X82500Y127000D02*
G54D13*
D03*
X63500Y177800D02*
G54D13*
D03*
X82500Y177800D02*
G54D13*
D03*
X169300Y367300D02*
G54D14*
D03*
X169300Y348300D02*
G54D14*
D03*
X236600Y363600D02*
G54D14*
D03*
X236600Y344600D02*
G54D14*
D03*
X279400Y292100D02*
G54D13*
D03*
X298400Y292100D02*
G54D13*
D03*
X279400Y266700D02*
G54D13*
D03*
X298400Y266700D02*
G54D13*
D03*
X266700Y241300D02*
G54D13*
D03*
X285700Y241300D02*
G54D13*
D03*
X250800Y161900D02*
G54D14*
D03*
X250800Y142900D02*
G54D14*
D03*
X276200Y161900D02*
G54D14*
D03*
X276200Y142900D02*
G54D14*
D03*
X355600Y139700D02*
G54D13*
D03*
X374600Y139700D02*
G54D13*
D03*
X355600Y165100D02*
G54D13*
D03*
X374600Y165100D02*
G54D13*
D03*
X428600Y149200D02*
G54D14*
D03*
X428600Y130200D02*
G54D14*
D03*
X403200Y276200D02*
G54D14*
D03*
X403200Y257200D02*
G54D14*
D03*
X377800Y631800D02*
G54D14*
D03*
X377800Y612800D02*
G54D14*
D03*
X584200Y616700D02*
G54D15*
D03*
X584200Y591300D02*
G54D15*
D03*
X38100Y177800D02*
G54D15*
D03*
X12700Y177800D02*
G54D15*
D03*
X38100Y254000D02*
G54D15*
D03*
X12700Y254000D02*
G54D15*
D03*
X342900Y228600D02*
G54D16*
D03*
X342900Y215900D02*
G54D16*
D03*
X342900Y203200D02*
G54D16*
D03*
X342900Y190500D02*
G54D16*
D03*
X396900Y190500D02*
G54D16*
D03*
X396900Y203200D02*
G54D16*
D03*
X396900Y215900D02*
G54D16*
D03*
X396900Y228600D02*
G54D16*
D03*
X164800Y316600D02*
G54D17*
D03*
X164800Y297600D02*
G54D17*
D03*
X377800Y542900D02*
G54D17*
D03*
X377800Y523900D02*
G54D17*
D03*
X403200Y542900D02*
G54D17*
D03*
X403200Y523900D02*
G54D17*
D03*
G54D18*
X88900Y673100D02*
X139700Y673100D01*
G54D18*
X88900Y647700D02*
X139700Y647700D01*
G54D18*
X88900Y622300D02*
X139700Y622300D01*
G54D18*
X88900Y596900D02*
X139700Y596900D01*
G36*
X45700Y655300D02*
X45700Y640100D01*
X30500Y640100D01*
X30500Y655300D01*
X45700Y655300D01*
G37*
X38100Y622300D02*
G54D10*
D03*
X38100Y596900D02*
G54D10*
D03*
X38100Y571500D02*
G54D10*
D03*
G54D18*
X76200Y520700D02*
X139700Y520700D01*
G54D18*
X76200Y495300D02*
X139700Y495300D01*
G54D18*
X76200Y469900D02*
X139700Y469900D01*
G54D18*
X76200Y444500D02*
X139700Y444500D01*
G54D18*
X76200Y419100D02*
X139700Y419100D01*
G54D18*
X76200Y393700D02*
X139700Y393700D01*
X266700Y584200D02*
G54D11*
D03*
X266700Y558800D02*
G54D11*
D03*
G54D18*
X403200Y523900D02*
X466700Y523900D01*
X469900Y520700D01*
G54D18*
X377800Y523900D02*
X403200Y523900D01*
G54D18*
X377800Y612800D02*
X377800Y600100D01*
X381000Y596900D01*
G54D19*
X25400Y292100D02*
X63500Y292100D01*
X76200Y279400D01*
G54D19*
X25400Y292100D02*
X12700Y279400D01*
X12700Y254000D01*
G54D18*
X20839Y206773D02*
X39839Y206773D01*
G54D18*
X20839Y206773D02*
X20839Y198639D01*
X12700Y190500D01*
X12700Y177800D01*
G54D18*
X250800Y161900D02*
X250800Y187300D01*
X254000Y190500D01*
X279400Y190500D01*
X279400Y165100D01*
X276200Y161900D01*
G54D20*
X266700Y508000D02*
X355600Y508000D01*
G54D20*
X266700Y558800D02*
X266700Y508000D01*
G54D20*
X355600Y508000D02*
X368300Y495300D01*
X431800Y495300D01*
X431800Y482600D01*
X444500Y469900D01*
X469900Y469900D01*
X406400Y571500D02*
G54D21*
D03*
G54D22*
X406400Y571500D02*
X406400Y546100D01*
X403200Y542900D01*
G54D22*
X355600Y508000D02*
X355600Y520700D01*
X355600Y508000D01*
X368300Y495300D01*
G54D22*
X368300Y495300D02*
X431800Y495300D01*
X431800Y482600D01*
X444500Y469900D01*
G54D22*
X266700Y558800D02*
X266700Y508000D01*
G54D22*
X355600Y520700D02*
X355600Y546100D01*
X374600Y546100D01*
X377800Y542900D01*
G54D23*
X342900Y190500D02*
X342900Y165100D01*
X355600Y152400D01*
G54D23*
X374600Y152400D02*
X381000Y152400D01*
X393700Y165100D01*
X393700Y187300D01*
X396900Y190500D01*
X406400Y355600D02*
G54D13*
D03*
X425400Y355600D02*
G54D13*
D03*
X406400Y330200D02*
G54D13*
D03*
X425400Y330200D02*
G54D13*
D03*
G54D23*
X292100Y647700D02*
X330200Y647700D01*
X342900Y660400D01*
X406400Y660400D01*
X419100Y647700D01*
X419100Y622300D01*
X431800Y609600D01*
X469900Y609600D01*
G54D23*
X381000Y660400D02*
X381000Y635000D01*
X377800Y631800D01*
G54D23*
X469900Y609600D02*
X469900Y546100D01*
G54D23*
X406400Y330200D02*
X406400Y355600D01*
X406400Y330200D01*
X396900Y344600D02*
G54D21*
D03*
G54D23*
X406400Y355600D02*
X406400Y354100D01*
X396900Y344600D01*
G54D23*
X396900Y344600D02*
X396900Y339700D01*
X406400Y330200D01*
G54D23*
X355600Y165100D02*
X355600Y139700D01*
G54D23*
X374600Y165100D02*
X374600Y139700D01*
X431800Y165100D02*
G54D21*
D03*
G54D23*
X431800Y165100D02*
X431800Y152400D01*
X428600Y149200D01*
X392200Y285700D02*
G54D21*
D03*
G54D23*
X393700Y292100D02*
X393700Y285700D01*
X403200Y276200D01*
G54D23*
X393700Y292100D02*
X393700Y285700D01*
X403200Y276200D01*
X414200Y247700D02*
G54D21*
D03*
G54D23*
X403200Y257200D02*
X404700Y257200D01*
X414200Y247700D01*
G54D23*
X404700Y257200D02*
X414200Y247700D01*
X412700Y247700D01*
X403200Y257200D01*
G54D18*
X76200Y571500D02*
X139700Y571500D01*
G54D18*
X76200Y546100D02*
X139700Y546100D01*
G54D18*
X250800Y142900D02*
X276200Y142900D01*
X139700Y673100D02*
G54D11*
D03*
X139700Y647700D02*
G54D11*
D03*
X139700Y622300D02*
G54D11*
D03*
X139700Y596900D02*
G54D11*
D03*
X292100Y673100D02*
G54D11*
D03*
X292100Y647700D02*
G54D11*
D03*
X292100Y622300D02*
G54D11*
D03*
X292100Y596900D02*
G54D11*
D03*
X139700Y571500D02*
G54D11*
D03*
X292100Y571500D02*
G54D11*
D03*
X139700Y546100D02*
G54D11*
D03*
X139700Y520700D02*
G54D11*
D03*
X292100Y546100D02*
G54D11*
D03*
X292100Y520700D02*
G54D11*
D03*
X139700Y495300D02*
G54D11*
D03*
X292100Y495300D02*
G54D11*
D03*
X139700Y469900D02*
G54D11*
D03*
X292100Y469900D02*
G54D11*
D03*
X139700Y444500D02*
G54D11*
D03*
X292100Y444500D02*
G54D11*
D03*
X292100Y419100D02*
G54D11*
D03*
X292100Y393700D02*
G54D11*
D03*
X139700Y419100D02*
G54D11*
D03*
X139700Y393700D02*
G54D11*
D03*
G36*
X45700Y541000D02*
X45700Y525800D01*
X30500Y525800D01*
X30500Y541000D01*
X45700Y541000D01*
G37*
X38100Y508000D02*
G54D10*
D03*
X38100Y482600D02*
G54D10*
D03*
X38100Y457200D02*
G54D10*
D03*
X38100Y431800D02*
G54D10*
D03*
G36*
X30500Y284500D02*
X30500Y299700D01*
X45700Y299700D01*
X45700Y284500D01*
X30500Y284500D01*
G37*
X38100Y317500D02*
G54D10*
D03*
X38100Y342900D02*
G54D10*
D03*
X38100Y368300D02*
G54D10*
D03*
X38100Y393700D02*
G54D10*
D03*
G36*
X548250Y335600D02*
X542400Y341450D01*
X542400Y369750D01*
X548250Y375600D01*
X556550Y375600D01*
X562400Y369750D01*
X562400Y341450D01*
X556550Y335600D01*
X548250Y335600D01*
G37*
G36*
X497450Y361000D02*
X491600Y366850D01*
X491600Y395150D01*
X497450Y401000D01*
X505750Y401000D01*
X511600Y395150D01*
X511600Y366850D01*
X505750Y361000D01*
X497450Y361000D01*
G37*
G36*
X497450Y310200D02*
X491600Y316050D01*
X491600Y344350D01*
X497450Y350200D01*
X505750Y350200D01*
X511600Y344350D01*
X511600Y316050D01*
X505750Y310200D01*
X497450Y310200D01*
G37*
G36*
X497450Y386400D02*
X491600Y392250D01*
X491600Y420550D01*
X497450Y426400D01*
X505750Y426400D01*
X511600Y420550D01*
X511600Y392250D01*
X505750Y386400D01*
X497450Y386400D01*
G37*
G36*
X497450Y284800D02*
X491600Y290650D01*
X491600Y318950D01*
X497450Y324800D01*
X505750Y324800D01*
X511600Y318950D01*
X511600Y290650D01*
X505750Y284800D01*
X497450Y284800D01*
G37*
G54D18*
X469900Y609600D02*
X546100Y609600D01*
X546100Y362000D01*
X539700Y355600D01*
G54D18*
X298400Y266700D02*
X330200Y266700D01*
X368300Y304800D01*
G54D18*
X368300Y304800D02*
X488900Y304800D01*
G54D18*
X425400Y330200D02*
X488900Y330200D01*
G54D18*
X425400Y355600D02*
X463500Y355600D01*
X488900Y381000D01*
G54D18*
X406400Y228600D02*
X520700Y228600D01*
X520700Y241300D01*
X546100Y241300D01*
X546100Y241300D02*
G54D24*
D03*
G36*
X536100Y245450D02*
X541950Y251300D01*
X550250Y251300D01*
X556100Y245450D01*
X556100Y237150D01*
X550250Y231300D01*
X541950Y231300D01*
X536100Y237150D01*
X536100Y245450D01*
G37*
G36*
X536100Y175100D02*
X556100Y175100D01*
X556100Y155100D01*
X536100Y155100D01*
X536100Y175100D01*
G37*
X319339Y158707D02*
G54D25*
D03*
X319339Y128707D02*
G54D25*
D03*
G54D19*
X355600Y139700D02*
X355600Y127000D01*
X425400Y127000D01*
X428600Y130200D01*
G54D26*
X429800Y451500D02*
X475000Y451000D01*
X520700Y451500D01*
X520700Y520700D01*
X469900Y520700D01*
X532534Y641315D02*
G54D27*
D03*
X532534Y664315D02*
G54D27*
D03*
X532534Y687315D02*
G54D27*
D03*
X470534Y664315D02*
G54D28*
D03*
G54D18*
X532534Y641315D02*
X532534Y610466D01*
X533400Y609600D01*
X442539Y658707D02*
G54D25*
D03*
X442539Y628707D02*
G54D25*
D03*
G54D18*
X442539Y628707D02*
X442539Y611561D01*
X444500Y609600D01*
G54D18*
X76200Y279400D02*
X76200Y266700D01*
X73000Y263500D01*
G54D19*
X73000Y244500D02*
X73000Y193700D01*
X88900Y177800D01*
G36*
X55500Y155720D02*
X60180Y160400D01*
X66820Y160400D01*
X71500Y155720D01*
X71500Y149080D01*
X66820Y144400D01*
X60180Y144400D01*
X55500Y149080D01*
X55500Y155720D01*
G37*
X73400Y263900D02*
G54D29*
D03*
X73400Y244100D02*
G54D29*
D03*
G54D18*
X470534Y664315D02*
X532534Y664315D01*
G54D18*
X532534Y687315D02*
X544585Y687315D01*
X546100Y685800D01*
G54D18*
X406400Y355600D02*
X406400Y354100D01*
X396900Y344600D01*
X396900Y346100D01*
X406400Y355600D01*
G54D18*
X396900Y344600D02*
X396900Y339700D01*
X406400Y330200D01*
X85700Y206400D02*
G54D17*
D03*
X85700Y225400D02*
G54D17*
D03*
G36*
X95300Y208075D02*
X98225Y211000D01*
X102375Y211000D01*
X105300Y208075D01*
X105300Y203925D01*
X102375Y201000D01*
X98225Y201000D01*
X95300Y203925D01*
X95300Y208075D01*
G37*
G36*
X45800Y205275D02*
X48725Y208200D01*
X52875Y208200D01*
X55800Y205275D01*
X55800Y201125D01*
X52875Y198200D01*
X48725Y198200D01*
X45800Y201125D01*
X45800Y205275D01*
G37*
G54D23*
X42675Y210085D02*
X47970Y204790D01*
X50800Y203200D01*
G54D18*
X12700Y254000D02*
X12700Y279400D01*
X25400Y292100D01*
X38100Y292100D01*
X63500Y292100D01*
X76200Y279400D01*
G54D18*
X38100Y317500D02*
X76200Y317500D01*
G54D18*
X38100Y342900D02*
X76200Y342900D01*
G54D18*
X38100Y368300D02*
X76200Y368300D01*
G54D18*
X38100Y393700D02*
X76200Y393700D01*
G54D18*
X38100Y431800D02*
X50800Y431800D01*
X63500Y419100D01*
X76200Y419100D01*
G54D18*
X38100Y457200D02*
X50800Y457200D01*
X63500Y444500D01*
X76200Y444500D01*
G54D18*
X38100Y482600D02*
X50800Y482600D01*
X63500Y469900D01*
X76200Y469900D01*
G54D18*
X38100Y508000D02*
X50800Y508000D01*
X63500Y495300D01*
X76200Y495300D01*
G54D18*
X38100Y533400D02*
X50800Y533400D01*
X63500Y520700D01*
X76200Y520700D01*
G54D19*
X38100Y622300D02*
X63500Y596900D01*
X63500Y571500D01*
X76200Y571500D01*
G54D18*
X38100Y647700D02*
X50800Y647700D01*
X63500Y635000D01*
X63500Y622300D01*
X88900Y596900D01*
G54D18*
X38100Y571500D02*
X38100Y533400D01*
G54D18*
X38100Y647700D02*
X7000Y647700D01*
X6000Y648700D01*
X6000Y311500D01*
X25400Y292100D01*
X38100Y292100D01*
G54D18*
X12700Y254000D02*
X12700Y177800D01*
X199100Y469000D02*
G54D14*
D03*
X199100Y450000D02*
G54D14*
D03*
X234300Y457200D02*
G54D14*
D03*
X234300Y438200D02*
G54D14*
D03*
G36*
X579800Y131600D02*
X591500Y143300D01*
X608100Y143300D01*
X619800Y131600D01*
X619800Y115000D01*
X608100Y103300D01*
X591500Y103300D01*
X579800Y115000D01*
X579800Y131600D01*
G37*
G36*
X2400Y689900D02*
X14100Y701600D01*
X30700Y701600D01*
X42400Y689900D01*
X42400Y673300D01*
X30700Y661600D01*
X14100Y661600D01*
X2400Y673300D01*
X2400Y689900D01*
G37*
G36*
X580000Y691300D02*
X591700Y703000D01*
X608300Y703000D01*
X620000Y691300D01*
X620000Y674700D01*
X608300Y663000D01*
X591700Y663000D01*
X580000Y674700D01*
X580000Y691300D01*
G37*
G36*
X1000Y132300D02*
X12700Y144000D01*
X29300Y144000D01*
X41000Y132300D01*
X41000Y115700D01*
X29300Y104000D01*
X12700Y104000D01*
X1000Y115700D01*
X1000Y132300D01*
G37*
G54D23*
X38100Y177800D02*
X38100Y154900D01*
X49000Y144000D01*
X49000Y141500D01*
X63500Y127000D01*
G54D18*
X546100Y685800D02*
X546100Y683900D01*
X554000Y676000D01*
X554000Y646900D01*
X584200Y616700D01*
G54D18*
X548000Y590000D02*
X582900Y590000D01*
X584200Y591300D01*
X156300Y368300D02*
G54D21*
D03*
X132000Y281000D02*
G54D21*
D03*
X103400Y293600D02*
G54D13*
D03*
X122400Y293600D02*
G54D13*
D03*
G54D18*
X122400Y293600D02*
X122400Y290600D01*
X132000Y281000D01*
X219000Y298000D02*
G54D21*
D03*
X89000Y301000D02*
G54D21*
D03*
G54D18*
X89000Y301000D02*
X96000Y301000D01*
X103400Y293600D01*
G54D23*
X76200Y368300D02*
X136300Y368300D01*
X143000Y375000D01*
X148000Y375000D01*
X175000Y402000D01*
X175000Y436000D01*
X176000Y437000D01*
G54D18*
X176000Y437000D02*
X176000Y440000D01*
X185000Y449000D01*
X198100Y449000D01*
X199100Y450000D01*
X200600Y450000D01*
X210100Y440500D01*
X232000Y440500D01*
X234300Y438200D01*
G54D18*
X234300Y457200D02*
X238200Y457200D01*
X251000Y470000D01*
X292000Y470000D01*
X292100Y469900D01*
G54D18*
X199100Y469000D02*
X199100Y481100D01*
X214000Y496000D01*
X291400Y496000D01*
X292100Y495300D01*
X326000Y571000D02*
G54D30*
D03*
X326000Y546000D02*
G54D31*
D03*
X326000Y520000D02*
G54D31*
D03*
X325000Y496000D02*
G54D31*
D03*
X324000Y470000D02*
G54D30*
D03*
G54D18*
X292100Y571500D02*
X325500Y571500D01*
X326000Y571000D01*
G54D18*
X292100Y546100D02*
X325900Y546100D01*
X326000Y546000D01*
G54D18*
X292100Y520700D02*
X325300Y520700D01*
X326000Y520000D01*
G54D18*
X292100Y495300D02*
X324300Y495300D01*
X325000Y496000D01*
G54D18*
X292100Y469900D02*
X323900Y469900D01*
X324000Y470000D01*
G54D18*
X285700Y241300D02*
X285700Y217700D01*
X285000Y217000D01*
G54D18*
X266000Y215000D02*
X266000Y191000D01*
G54D18*
X429800Y451500D02*
X412500Y444500D01*
X294500Y349600D01*
X246000Y314500D01*
X219000Y298000D01*
G36*
X166000Y482075D02*
X168925Y485000D01*
X173075Y485000D01*
X176000Y482075D01*
X176000Y477925D01*
X173075Y475000D01*
X168925Y475000D01*
X166000Y477925D01*
X166000Y482075D01*
G37*
G54D23*
X38100Y254000D02*
X43000Y254000D01*
X59000Y238000D01*
X59000Y216000D01*
X62000Y213000D01*
X62000Y179300D01*
X63500Y177800D01*
G36*
X36000Y232075D02*
X38925Y235000D01*
X43075Y235000D01*
X46000Y232075D01*
X46000Y227925D01*
X43075Y225000D01*
X38925Y225000D01*
X36000Y227925D01*
X36000Y232075D01*
G37*
G36*
X83000Y248075D02*
X85925Y251000D01*
X90075Y251000D01*
X93000Y248075D01*
X93000Y243925D01*
X90075Y241000D01*
X85925Y241000D01*
X83000Y243925D01*
X83000Y248075D01*
G37*
G54D18*
X73400Y244100D02*
X86100Y244100D01*
X88000Y246000D01*
G54D18*
X30339Y228973D02*
X39973Y228973D01*
X41000Y230000D01*
X327000Y623000D02*
G54D30*
D03*
G54D18*
X292100Y622300D02*
X326300Y622300D01*
X327000Y623000D01*
G54D18*
X292100Y596900D02*
X426100Y596900D01*
X432000Y591000D01*
X432000Y525000D01*
X431000Y524000D01*
X41374Y205361D02*
G54D32*
D03*
X22374Y205361D02*
G54D32*
D03*
X31874Y227561D02*
G54D32*
D03*
G36*
X131700Y681100D02*
X147700Y681100D01*
X147700Y665100D01*
X131700Y665100D01*
X131700Y681100D01*
G37*
G54D18*
X15000Y202000D02*
X19013Y202000D01*
X22374Y205361D01*
X20674Y205361D01*
X15974Y210061D01*
G54D18*
X22374Y205361D02*
X30639Y205361D01*
X36000Y200000D01*
G54D18*
X20839Y198639D02*
X46239Y198639D01*
X50800Y203200D01*
G54D18*
X406400Y571500D02*
X406400Y546100D01*
X403200Y542900D01*
G54D18*
X374600Y546100D02*
X355600Y546100D01*
X355600Y508000D01*
X368300Y495300D01*
X431800Y495300D01*
X431800Y482600D01*
X444500Y469900D01*
X469900Y469900D01*
G54D18*
X343000Y508000D02*
X355600Y508000D01*
G54D18*
X266700Y558800D02*
X266700Y508000D01*
G54D18*
X266700Y508000D02*
X276000Y508000D01*
X342800Y114100D02*
G54D21*
D03*
G54D18*
X319339Y128707D02*
X328193Y128707D01*
X342800Y114100D01*
X368300Y215900D02*
G54D21*
D03*
X407800Y203100D02*
G54D21*
D03*
G54D18*
X319339Y158707D02*
X319339Y195339D01*
X328000Y204000D01*
X336000Y204000D01*
X337000Y205000D01*
G54D18*
X342900Y215900D02*
X342900Y203200D01*
X384800Y246100D02*
G54D21*
D03*
G54D18*
X285700Y217700D02*
X294700Y217700D01*
X322000Y245000D01*
X383700Y245000D01*
X384800Y246100D01*
G36*
X479700Y204700D02*
X493500Y204700D01*
X493500Y186700D01*
X479700Y186700D01*
X479700Y204700D01*
G37*
G36*
X509700Y204700D02*
X523500Y204700D01*
X523500Y186700D01*
X509700Y186700D01*
X509700Y204700D01*
G37*
X537800Y197100D02*
G54D21*
D03*
G54D18*
X478800Y203100D02*
X479200Y203100D01*
X486600Y195700D01*
G54D18*
X516600Y195700D02*
X536400Y195700D01*
X537800Y197100D01*
G54D18*
X407800Y203100D02*
X478800Y203100D01*
G54D18*
X404000Y190000D02*
X445000Y190000D01*
X446000Y189000D01*
X448000Y189000D01*
X471000Y166000D01*
X545200Y166000D01*
X546100Y165100D01*
G36*
X574200Y601300D02*
X594200Y601300D01*
X594200Y581300D01*
X574200Y581300D01*
X574200Y601300D01*
G37*
G54D18*
X292100Y673100D02*
X446832Y673100D01*
X447639Y673907D01*
X447639Y663807D01*
X442539Y658707D01*
X447639Y663807D01*
X470026Y663807D01*
X470534Y664315D01*
X586000Y516000D02*
G54D33*
D03*
X567000Y516000D02*
G54D33*
D03*
X432000Y265000D02*
G54D17*
D03*
X432000Y284000D02*
G54D17*
D03*
X501500Y271500D02*
G54D17*
D03*
X501500Y252500D02*
G54D17*
D03*
X579000Y446000D02*
G54D33*
D03*
X598000Y446000D02*
G54D33*
D03*
X464000Y250000D02*
G54D32*
D03*
X464000Y269000D02*
G54D32*
D03*
X486200Y259500D02*
G54D32*
D03*
G54D18*
X432000Y265000D02*
X460000Y265000D01*
X464000Y269000D01*
G54D18*
X464000Y250000D02*
X464000Y248300D01*
X468700Y243600D01*
X503400Y243600D01*
X504000Y243000D01*
X504000Y250000D01*
X501500Y252500D01*
G54D18*
X486200Y259500D02*
X486200Y268200D01*
X490000Y272000D01*
X501000Y272000D01*
X501500Y271500D01*
X487000Y239000D02*
G54D21*
D03*
X443000Y287000D02*
G54D21*
D03*
G54D18*
X432000Y284000D02*
X440000Y284000D01*
X443000Y287000D01*
X579000Y471000D02*
G54D32*
D03*
X579000Y490000D02*
G54D32*
D03*
X601200Y480500D02*
G54D32*
D03*
G54D23*
X579000Y471000D02*
X579000Y446000D01*
G54D23*
X601200Y480500D02*
X601200Y449200D01*
X598000Y446000D01*
X580000Y429000D02*
G54D21*
D03*
G54D23*
X581000Y439000D02*
X581000Y430000D01*
X580000Y429000D01*
G54D23*
X579000Y490000D02*
X579000Y494000D01*
X587000Y502000D01*
X587000Y515000D01*
X586000Y516000D01*
X606000Y475000D02*
G54D21*
D03*
G54D23*
X601200Y480500D02*
X601200Y479800D01*
X606000Y475000D01*
X560000Y498000D02*
G54D21*
D03*
G54D23*
X567000Y516000D02*
X567000Y505000D01*
X560000Y498000D01*
X441000Y425000D02*
G54D21*
D03*
X381000Y455000D02*
G54D21*
D03*
X364300Y476200D02*
G54D14*
D03*
X364300Y457200D02*
G54D14*
D03*
G54D23*
X325000Y496000D02*
X344500Y496000D01*
X364300Y476200D01*
G54D23*
X364300Y457200D02*
X378800Y457200D01*
X381000Y455000D01*
X415000Y426000D02*
G54D21*
D03*
X455000Y439000D02*
G54D21*
D03*
G54D26*
X415000Y426000D02*
X416000Y426000D01*
X429000Y439000D01*
X455000Y439000D01*
G36*
X28100Y657700D02*
X48100Y657700D01*
X48100Y637700D01*
X28100Y637700D01*
X28100Y657700D01*
G37*
X38100Y622300D02*
G54D11*
D03*
X38100Y622300D02*
G54D12*
D03*
X38100Y596900D02*
G54D12*
D03*
X38100Y571500D02*
G54D12*
D03*
X38100Y533400D02*
G54D12*
D03*
X38100Y508000D02*
G54D12*
D03*
X38100Y482600D02*
G54D12*
D03*
X38100Y457200D02*
G54D12*
D03*
X38100Y431800D02*
G54D12*
D03*
X38100Y393700D02*
G54D12*
D03*
X38100Y368300D02*
G54D12*
D03*
X38100Y342900D02*
G54D12*
D03*
X38100Y317500D02*
G54D12*
D03*
G36*
X28100Y302100D02*
X48100Y302100D01*
X48100Y282100D01*
X28100Y282100D01*
X28100Y302100D01*
G37*
X469900Y546100D02*
G54D12*
D03*
X469900Y520700D02*
G54D12*
D03*
X469900Y495300D02*
G54D12*
D03*
X469900Y469900D02*
G54D12*
D03*
X202572Y240700D02*
G54D34*
D03*
X202572Y234200D02*
G54D34*
D03*
X202572Y227700D02*
G54D34*
D03*
X202572Y221200D02*
G54D34*
D03*
X202572Y214700D02*
G54D34*
D03*
X202572Y208200D02*
G54D34*
D03*
X202572Y201700D02*
G54D34*
D03*
X202572Y195200D02*
G54D34*
D03*
X202572Y188700D02*
G54D34*
D03*
X202572Y182200D02*
G54D34*
D03*
X202572Y175700D02*
G54D34*
D03*
X202572Y169200D02*
G54D34*
D03*
X133700Y240700D02*
G54D34*
D03*
X133700Y234200D02*
G54D34*
D03*
X133700Y227700D02*
G54D34*
D03*
X133700Y221200D02*
G54D34*
D03*
X133700Y214700D02*
G54D34*
D03*
X133700Y208200D02*
G54D34*
D03*
X133700Y201700D02*
G54D34*
D03*
X133700Y195200D02*
G54D34*
D03*
X133700Y188700D02*
G54D34*
D03*
X133700Y182200D02*
G54D34*
D03*
X133700Y175700D02*
G54D34*
D03*
X133700Y169200D02*
G54D34*
D03*
X134494Y240700D02*
G54D34*
D03*
X134494Y234200D02*
G54D34*
D03*
X134494Y227700D02*
G54D34*
D03*
X134494Y221200D02*
G54D34*
D03*
X134494Y214700D02*
G54D34*
D03*
X134494Y208200D02*
G54D34*
D03*
X134494Y201700D02*
G54D34*
D03*
X134494Y195200D02*
G54D34*
D03*
X134494Y188700D02*
G54D34*
D03*
X134494Y182200D02*
G54D34*
D03*
X134494Y175700D02*
G54D34*
D03*
X134494Y169200D02*
G54D34*
D03*
X201778Y240700D02*
G54D34*
D03*
X201778Y234200D02*
G54D34*
D03*
X201778Y227700D02*
G54D34*
D03*
X201778Y221200D02*
G54D34*
D03*
X201778Y214700D02*
G54D34*
D03*
X201778Y208200D02*
G54D34*
D03*
X201778Y201700D02*
G54D34*
D03*
X201778Y195200D02*
G54D34*
D03*
X201778Y188700D02*
G54D34*
D03*
X201778Y182200D02*
G54D34*
D03*
X201778Y175700D02*
G54D34*
D03*
X201778Y169200D02*
G54D34*
D03*
X201381Y240700D02*
G54D34*
D03*
X201381Y234200D02*
G54D34*
D03*
X201381Y227700D02*
G54D34*
D03*
X201381Y221200D02*
G54D34*
D03*
X201381Y214700D02*
G54D34*
D03*
X201381Y208200D02*
G54D34*
D03*
X201381Y201700D02*
G54D34*
D03*
X201381Y195200D02*
G54D34*
D03*
X201381Y188700D02*
G54D34*
D03*
X201381Y182200D02*
G54D34*
D03*
X201381Y175700D02*
G54D34*
D03*
X201381Y169200D02*
G54D34*
D03*
X134891Y240700D02*
G54D34*
D03*
X134891Y234200D02*
G54D34*
D03*
X134891Y227700D02*
G54D34*
D03*
X134891Y221200D02*
G54D34*
D03*
X134891Y214700D02*
G54D34*
D03*
X134891Y208200D02*
G54D34*
D03*
X134891Y201700D02*
G54D34*
D03*
X134891Y195200D02*
G54D34*
D03*
X134891Y188700D02*
G54D34*
D03*
X134891Y182200D02*
G54D34*
D03*
X134891Y175700D02*
G54D34*
D03*
X134891Y169200D02*
G54D34*
D03*
G54D22*
X143000Y182000D02*
X149500Y182000D01*
X149500Y175500D01*
X143000Y175500D01*
G54D22*
X149500Y175500D02*
X201181Y175500D01*
X201381Y175700D01*
G54D22*
X188500Y175500D02*
X188500Y169000D01*
X201181Y169000D01*
X201381Y169200D01*
G54D22*
X201381Y188700D02*
X188700Y188700D01*
X188500Y188500D01*
X188500Y175500D01*
G54D22*
X82500Y127000D02*
X101000Y127000D01*
X110500Y136500D01*
X110500Y169000D01*
X133500Y169000D01*
X133700Y169200D01*
G54D22*
X63500Y152400D02*
X93900Y152400D01*
X97500Y156000D01*
X97500Y169000D01*
X110500Y182000D01*
X117000Y182000D01*
X117000Y188500D01*
X133500Y188500D01*
X133700Y188700D01*
G54D22*
X88900Y177800D02*
X93300Y177800D01*
X104000Y188500D01*
X104000Y195000D01*
X133500Y195000D01*
X133700Y195200D01*
G54D22*
X134891Y227700D02*
X149300Y227700D01*
X149500Y227500D01*
X149500Y295000D01*
X149200Y295300D01*
G54D22*
X202572Y240700D02*
X220800Y240700D01*
X221000Y240500D01*
X221000Y273000D01*
X227500Y273000D01*
X247000Y292500D01*
X279000Y292500D01*
X279400Y292100D01*
G54D22*
X202572Y234200D02*
X227300Y234200D01*
X227500Y234000D01*
X227500Y253500D01*
X240500Y266500D01*
X279200Y266500D01*
X279400Y266700D01*
G54D22*
X208000Y227500D02*
X234000Y227500D01*
X247000Y240500D01*
X265900Y240500D01*
X266700Y241300D01*
G54D22*
X208000Y221000D02*
X221000Y221000D01*
X221000Y214500D01*
X202772Y214500D01*
X202572Y214700D01*
G54D23*
X221000Y214500D02*
X265500Y214500D01*
X266000Y215000D01*
X221000Y214500D02*
G54D21*
D03*
X235100Y184900D02*
G54D21*
D03*
G54D22*
X202572Y182200D02*
X227300Y182200D01*
X227500Y182000D01*
X232200Y182000D01*
X235100Y184900D01*
X223000Y197000D02*
G54D21*
D03*
G54D22*
X202572Y201700D02*
X218300Y201700D01*
X223000Y197000D01*
X171600Y197300D02*
G54D21*
D03*
G54D22*
X201381Y195200D02*
X182200Y195200D01*
X182000Y195000D01*
X173900Y195000D01*
X171600Y197300D01*
G54D22*
X133700Y221200D02*
X110700Y221200D01*
X110500Y221000D01*
X104000Y227500D01*
X87800Y227500D01*
X85700Y225400D01*
X163800Y214700D02*
G54D21*
D03*
G54D22*
X134891Y214700D02*
X163800Y214700D01*
X160200Y175300D02*
G54D21*
D03*
X235400Y142100D02*
G54D21*
D03*
G54D22*
X235400Y142100D02*
X250000Y142100D01*
X250800Y142900D01*
G54D23*
X235400Y142100D02*
X250000Y142100D01*
X250800Y142900D01*
G54D23*
X201381Y169200D02*
X201381Y142119D01*
X201800Y141700D01*
X235000Y141700D01*
X235400Y142100D01*
G54D22*
X85700Y206400D02*
X99900Y206400D01*
X100300Y206000D01*
G54D35*
X211400Y327200D02*
X211400Y316200D01*
G54D35*
X197100Y327200D02*
X197100Y316200D01*
G54D18*
X156300Y368300D02*
X239000Y368300D01*
X240300Y369600D01*
G54D18*
X149500Y295000D02*
X162200Y295000D01*
X164800Y297600D01*
G54D18*
X156300Y368300D02*
X168300Y368300D01*
X169300Y367300D01*
G54D18*
X169300Y348300D02*
X169300Y321100D01*
X164800Y316600D01*
G54D18*
X164800Y316600D02*
X192000Y316600D01*
X197100Y321700D01*
G54D18*
X211400Y321700D02*
X222300Y321700D01*
X235100Y334500D01*
X235100Y343100D01*
X236600Y344600D01*
G54D22*
X201381Y208200D02*
X183100Y208200D01*
X182100Y209200D01*
X182100Y262900D01*
X182800Y263600D01*
X189500Y263600D01*
X201500Y275600D01*
X201500Y298000D01*
X210400Y306900D01*
X210400Y320700D01*
X211400Y321700D01*
G54D18*
X501600Y304800D02*
X501600Y271600D01*
X501500Y271500D01*
G54D18*
X266000Y215000D02*
X283000Y215000D01*
X285700Y217700D01*
G54D22*
X351500Y227800D02*
X365700Y227800D01*
X367200Y226300D01*
X367200Y217000D01*
X368300Y215900D01*
X396900Y215900D01*
G54D18*
X302200Y298000D02*
X303000Y298000D01*
X411900Y406900D01*
X501100Y406900D01*
X501600Y406400D01*
M02*
