%
M48
M72
T01C0.0197
T02C0.0236
T03C0.0276
T04C0.0400
T05C0.0470
T06C0.0512
T07C0.1200
%
T01
X10345Y8470
X12220Y7095
X10345Y10220
T02
X11845Y10220
X13720Y9595
X14220Y7345
X15720Y7345
X12095Y5970
X8720Y5845
X8345Y7345
X5470Y6970
X4095Y5855
X5970Y4720
X5470Y8595
X6970Y13220
X12970Y12470
T03
X10845Y10845
X9845Y10845
T04
X14970Y10470
X14970Y11470
X14970Y4845
X14970Y3845
X12470Y1970
X11470Y1970
X10470Y1970
X9470Y1970
X7720Y1970
X6720Y1970
X2095Y9470
X2095Y10470
X2095Y11470
T05
X12970Y10595
T06
X10283Y11986
X10283Y13954
T07
X1720Y1720
X1720Y13720
X15345Y13720
X15345Y1720
M30
